# 3ds Max Wavefront OBJ Exporter v0.97b - (c)2007 guruware
# File Created: 02.11.2019 17:55:57

mtllib 2.mtl

#
# object Object001
#

v  -390.1934 13.7069 77.0304
v  -390.1934 69.4406 77.0304
v  -390.1934 69.4406 -41.4564
v  -390.1934 13.7069 -41.4564
v  -177.6190 228.7209 -41.4564
v  -163.9120 329.2558 -41.4564
v  614.8482 329.2558 -41.4564
v  628.5552 228.7209 -41.4564
v  259.7491 0.0000 -41.4564
v  642.2621 215.0140 -41.4564
v  765.6794 96.8546 -41.4564
v  779.3864 83.1476 -41.4564
v  1053.4333 83.1476 -41.4564
v  1053.4333 0.0000 -41.4564
v  -191.3260 215.0140 -41.4564
v  -340.7574 201.3070 -41.4564
v  -327.0505 215.0140 -41.4564
v  -354.4644 83.1476 -41.4564
v  -376.4864 -0.0000 -41.4564
v  -376.4864 83.1476 -41.4564
v  -177.6190 315.5488 -41.4564
v  -177.6190 315.5488 77.0304
v  -163.9120 329.2558 77.0304
v  -376.4864 -0.0000 77.0304
v  628.5552 228.7209 77.0304
v  642.2621 215.0140 77.0304
v  628.5552 315.5488 -41.4564
v  751.9725 215.0140 -41.4564
v  765.6794 201.3070 -41.4564
v  1067.1403 69.4406 -41.4564
v  1067.1403 13.7070 -41.4564
v  -340.7574 96.8546 -41.4564
v  614.8482 329.2558 77.0304
v  1067.1403 69.4406 77.0304
v  1067.1403 13.7070 77.0304
v  -177.6190 228.7209 77.0304
v  -327.0505 215.0140 77.0304
v  -191.3260 215.0140 77.0304
v  -376.4864 83.1476 77.0304
v  628.5552 315.5488 77.0304
v  751.9725 215.0140 77.0304
v  765.6794 201.3070 77.0304
v  765.6794 96.8546 77.0304
v  259.7491 0.0000 77.0304
v  779.3864 83.1476 77.0304
v  1053.4333 0.0000 77.0304
v  1053.4333 83.1476 77.0304
v  -340.7574 201.3070 77.0304
v  -354.4644 83.1476 77.0304
v  -340.7574 96.8546 77.0304
# 50 vertices

vn -0.9239 -0.3827 -0.0000
vn -0.9239 0.3827 -0.0000
vn 0.0000 0.0000 -1.0000
vn -0.3827 0.9239 -0.0000
vn -0.3827 -0.9239 -0.0000
vn 0.9239 0.3827 -0.0000
vn 0.3827 0.9239 -0.0000
vn 0.9239 -0.3827 -0.0000
vn 0.0000 0.0000 1.0000
vn 0.0000 -1.0000 -0.0000
vn 0.3827 -0.9239 -0.0000
# 11 vertex normals

vt 0.4367 0.7147 0.0000
vt 0.4746 0.7147 0.0000
vt 0.4746 0.7953 0.0000
vt 0.4367 0.7953 0.0000
vt 0.8461 0.3952 0.0000
vt 0.8368 0.4635 0.0000
vt 0.3074 0.4635 0.0000
vt 0.2981 0.3952 0.0000
vt 0.5488 0.2397 0.0000
vt 0.2888 0.3859 0.0000
vt 0.2049 0.3056 0.0000
vt 0.1956 0.2962 0.0000
vt 0.0093 0.2962 0.0000
vt 0.0093 0.2397 0.0000
vt 0.8554 0.3859 0.0000
vt 0.9570 0.3766 0.0000
vt 0.9476 0.3859 0.0000
vt 0.9663 0.2962 0.0000
vt 0.9813 0.2397 0.0000
vt 0.9813 0.2962 0.0000
vt 0.8958 0.0875 0.0000
vt 0.8153 0.0875 0.0000
vt 0.8153 0.0743 0.0000
vt 0.8958 0.0743 0.0000
vt 0.4235 0.7953 0.0000
vt 0.4235 0.7147 0.0000
vt 0.7924 0.9882 0.0000
vt 0.7924 0.9077 0.0000
vt 0.8056 0.9077 0.0000
vt 0.8056 0.9882 0.0000
vt 0.2981 0.4542 0.0000
vt 0.8461 0.4542 0.0000
vt 0.2142 0.3859 0.0000
vt 0.2049 0.3766 0.0000
vt 0.0000 0.2869 0.0000
vt 0.0000 0.2490 0.0000
vt 0.9570 0.3056 0.0000
vt 0.9906 0.2490 0.0000
vt 0.9906 0.2869 0.0000
vt 0.9643 0.6988 0.0000
vt 0.4350 0.6988 0.0000
vt 0.4350 0.6183 0.0000
vt 0.9643 0.6183 0.0000
vt 0.9511 0.8917 0.0000
vt 0.9132 0.8917 0.0000
vt 0.9132 0.8112 0.0000
vt 0.9511 0.8112 0.0000
vt 0.8958 0.1465 0.0000
vt 0.8153 0.1465 0.0000
vt 0.6005 0.8112 0.0000
vt 0.6005 0.8917 0.0000
vt 0.5083 0.8917 0.0000
vt 0.5083 0.8112 0.0000
vt 0.4878 0.7953 0.0000
vt 0.4878 0.7147 0.0000
vt 0.0000 0.3140 0.0000
vt 0.0805 0.3140 0.0000
vt 0.0805 0.3731 0.0000
vt 0.0000 0.3731 0.0000
vt 0.1445 0.1555 0.0000
vt 0.6925 0.1555 0.0000
vt 0.6831 0.2238 0.0000
vt 0.1538 0.2238 0.0000
vt 0.8801 0.9077 0.0000
vt 0.8801 0.9882 0.0000
vt 0.9643 0.9882 0.0000
vt 0.8933 0.9882 0.0000
vt 0.8933 0.9077 0.0000
vt 0.9643 0.9077 0.0000
vt 0.4418 0.0000 0.0000
vt 0.7857 0.0658 0.0000
vt 0.7018 0.1461 0.0000
vt 0.7950 0.0565 0.0000
vt 0.9813 0.0000 0.0000
vt 0.9813 0.0565 0.0000
vt 0.9001 0.8112 0.0000
vt 0.9001 0.8917 0.0000
vt 0.7138 0.8917 0.0000
vt 0.7138 0.8112 0.0000
vt 0.1352 0.1462 0.0000
vt 0.0429 0.1462 0.0000
vt 0.0336 0.1368 0.0000
vt 0.0093 0.0000 0.0000
vt 0.0243 0.0565 0.0000
vt 0.0093 0.0565 0.0000
vt 0.9643 0.7147 0.0000
vt 0.9643 0.7953 0.0000
vt 0.5318 0.7953 0.0000
vt 0.5318 0.7147 0.0000
vt 0.7006 0.8917 0.0000
vt 0.7006 0.8112 0.0000
vt 0.6925 0.2145 0.0000
vt 0.1445 0.2145 0.0000
vt 0.7763 0.1461 0.0000
vt 0.7857 0.1368 0.0000
vt 0.9906 0.0472 0.0000
vt 0.9906 0.0093 0.0000
vt 0.0336 0.0658 0.0000
vt 0.0000 0.0093 0.0000
vt 0.0000 0.0472 0.0000
vt 0.6847 0.8112 0.0000
vt 0.6847 0.8917 0.0000
vt 0.6137 0.8917 0.0000
vt 0.6137 0.8112 0.0000
vt 0.4248 0.6023 0.0000
vt 0.4248 0.5218 0.0000
vt 0.9643 0.5218 0.0000
vt 0.9643 0.6024 0.0000
vt 0.5027 0.7953 0.0000
vt 0.5027 0.7147 0.0000
vt 0.0805 0.3862 0.0000
vt 0.0000 0.3862 0.0000
vt 0.9643 0.8112 0.0000
vt 0.9643 0.8917 0.0000
vt 0.4951 0.8112 0.0000
vt 0.4951 0.8917 0.0000
vt 0.5159 0.7147 0.0000
vt 0.5159 0.7953 0.0000
# 118 texture coords

g Object001
usemtl wire_154185229
s 1
f 1/1/1 2/2/2 3/3/2 4/4/1 
s 2
f 5/5/3 6/6/3 7/7/3 8/8/3 
f 9/9/3 5/5/3 8/8/3 
f 9/9/3 8/8/3 10/10/3 11/11/3 
f 12/12/3 13/13/3 14/14/3 9/9/3 
f 15/15/3 9/9/3 16/16/3 17/17/3 
f 18/18/3 19/19/3 20/20/3 
s 1
f 21/21/2 22/22/2 23/23/4 6/24/4 
f 19/25/5 24/26/5 1/1/1 4/4/1 
f 8/27/6 25/28/6 26/29/7 10/30/7 
s 2
f 7/7/3 27/31/3 8/8/3 
f 5/5/3 21/32/3 6/6/3 
f 28/33/3 29/34/3 11/11/3 10/10/3 
f 9/9/3 11/11/3 12/12/3 
f 30/35/3 31/36/3 14/14/3 13/13/3 
f 15/15/3 5/5/3 9/9/3 
f 9/9/3 18/18/3 32/37/3 
f 9/9/3 32/37/3 16/16/3 
f 4/38/3 3/39/3 20/20/3 19/19/3 
f 18/18/3 9/9/3 19/19/3 
s 1
f 7/40/7 6/41/4 23/42/4 33/43/7 
f 31/44/8 30/45/6 34/46/6 35/47/8 
f 5/48/2 36/49/2 22/22/2 21/21/2 
f 17/50/4 37/51/4 38/52/4 15/53/4 
f 20/54/4 3/3/2 2/2/2 39/55/4 
f 25/56/6 8/57/6 27/58/6 40/59/6 
s 2
f 36/60/9 25/61/9 33/62/9 23/63/9 
s 1
f 26/29/7 41/64/7 28/65/7 10/30/7 
f 11/66/6 29/67/6 42/68/6 43/69/6 
s 2
f 44/70/9 25/61/9 36/60/9 
f 44/70/9 43/71/9 26/72/9 25/61/9 
f 45/73/9 44/70/9 46/74/9 47/75/9 
s 1
f 47/76/7 13/77/7 12/78/7 45/79/7 
s 2
f 38/80/9 37/81/9 48/82/9 44/70/9 
f 24/83/9 44/70/9 49/84/9 39/85/9 
s 1
f 24/86/5 19/87/5 9/88/10 44/89/10 
f 34/46/6 30/45/6 13/77/7 47/76/7 
f 29/67/6 28/65/7 41/64/7 42/68/6 
f 12/78/7 11/90/6 43/91/6 45/79/7 
s 2
f 33/62/9 25/61/9 40/92/9 
f 36/60/9 23/63/9 22/93/9 
f 41/94/9 26/72/9 43/71/9 42/95/9 
f 44/70/9 45/73/9 43/71/9 
f 34/96/9 47/75/9 46/74/9 35/97/9 
f 38/80/9 44/70/9 36/60/9 
f 44/70/9 50/98/9 49/84/9 
f 44/70/9 48/82/9 50/98/9 
f 1/99/9 24/83/9 39/85/9 2/100/9 
s 1
f 32/101/2 50/102/2 48/103/2 16/104/2 
f 14/105/11 46/106/11 44/107/10 9/108/10 
f 18/109/4 20/54/4 39/55/4 49/110/4 
f 27/58/6 7/111/7 33/112/7 40/59/6 
f 31/44/8 35/47/8 46/113/11 14/114/11 
f 5/115/2 15/53/4 38/52/4 36/116/2 
f 16/104/2 48/103/2 37/51/4 17/50/4 
f 18/109/4 49/110/4 50/117/2 32/118/2 
# 40 polygons - 16 triangles

