# 3ds Max Wavefront OBJ Exporter v0.97b - (c)2007 guruware
# File Created: 02.11.2019 20:07:40

mtllib 1111.mtl

#
# object Box001
#

v  687.5808 185.0281 16.7527
v  687.5808 185.0281 -18.3556
v  99.6892 185.0281 -18.3556
v  99.6892 185.0281 16.7527
v  817.8973 0.0000 16.7527
v  817.8973 0.0000 -18.3556
v  817.8973 36.1164 -18.3556
v  817.8973 36.1164 16.7527
v  -31.6796 0.0000 -18.3556
v  -31.6796 0.0000 16.7527
v  -31.6796 36.1164 16.7527
v  -31.6796 36.1164 -18.3556
v  394.0889 0.0000 16.7527
v  394.0889 0.0000 -18.3556
v  784.2554 36.1164 -18.3556
v  784.2554 36.1164 16.7527
v  2.3383 36.1164 16.7527
v  2.3383 36.1164 -18.3556
v  784.2554 73.2294 -18.3556
v  784.2554 73.2294 16.7527
v  2.3383 73.2294 16.7527
v  2.3383 73.2294 -18.3556
v  752.5562 73.2294 -18.3556
v  752.5562 73.2294 16.7527
v  35.6216 73.2294 16.7527
v  35.6216 73.2294 -18.3556
v  752.5562 110.6372 -18.3556
v  752.5562 110.6372 16.7527
v  35.6216 110.6372 16.7527
v  35.6216 110.6372 -18.3556
v  720.5023 110.6372 -18.3556
v  720.5023 110.6372 16.7527
v  67.7822 110.6372 16.7527
v  67.7822 110.6372 -18.3556
v  687.5808 147.2114 16.7527
v  99.6892 147.2114 16.7527
v  720.5023 147.2114 -18.3556
v  720.5023 147.2114 16.7527
v  99.6892 147.2114 -18.3556
v  687.5808 147.2114 -18.3556
v  67.7822 147.2114 16.7527
v  67.7822 147.2114 -18.3556
# 42 vertices

vn 0.0000 1.0000 -0.0000
vn 1.0000 0.0000 -0.0000
vn -1.0000 0.0000 -0.0000
vn 0.0000 -1.0000 -0.0000
vn 0.0000 0.0000 1.0000
vn -0.0000 0.0000 1.0000
vn -0.0000 -0.0000 -1.0000
vn -0.0000 0.0000 -1.0000
vn 0.0000 -0.0000 -1.0000
vn 0.0000 0.0000 -1.0000
vn -1.0000 0.0000 0.0000
vn 1.0000 0.0000 0.0000
# 12 vertex normals

vt 0.6850 0.5156 0.0000
vt 0.6850 0.5565 0.0000
vt 0.0000 0.5565 0.0000
vt 0.0000 0.5156 0.0000
vt 0.0000 0.6881 0.0000
vt 0.0409 0.6881 0.0000
vt 0.0409 0.7302 0.0000
vt 0.0000 0.7302 0.0000
vt 0.0554 0.7449 0.0000
vt 0.0963 0.7449 0.0000
vt 0.0963 0.7870 0.0000
vt 0.0554 0.7870 0.0000
vt 0.9899 0.4602 0.0000
vt 0.9899 0.5011 0.0000
vt 0.4961 0.5011 0.0000
vt 0.4961 0.4602 0.0000
vt 0.0000 0.5011 0.0000
vt 0.0000 0.4602 0.0000
vt 0.1500 0.6858 0.0000
vt 0.1500 0.7267 0.0000
vt 0.1108 0.7267 0.0000
vt 0.1108 0.6858 0.0000
vt 0.6995 0.5565 0.0000
vt 0.6995 0.5156 0.0000
vt 0.7391 0.5156 0.0000
vt 0.7391 0.5565 0.0000
vt 0.9900 0.0000 0.0000
vt 0.9900 0.0436 0.0000
vt 0.9507 0.0436 0.0000
vt 0.4962 0.0000 0.0000
vt 0.0000 0.0406 0.0000
vt 0.0001 0.0000 0.0000
vt 0.0396 0.0406 0.0000
vt 0.9900 0.2301 0.0000
vt 0.9900 0.2737 0.0000
vt 0.9503 0.2737 0.0000
vt 0.4939 0.2301 0.0000
vt 0.0000 0.2707 0.0000
vt 0.0001 0.2301 0.0000
vt 0.0392 0.2707 0.0000
vt 0.0554 0.6872 0.0000
vt 0.0963 0.6872 0.0000
vt 0.0963 0.7304 0.0000
vt 0.0554 0.7304 0.0000
vt 0.1108 0.5710 0.0000
vt 0.1517 0.5710 0.0000
vt 0.1517 0.6142 0.0000
vt 0.1108 0.6142 0.0000
vt 0.1477 0.7412 0.0000
vt 0.1477 0.7822 0.0000
vt 0.1108 0.7822 0.0000
vt 0.1108 0.7412 0.0000
vt 0.1662 0.6690 0.0000
vt 0.1662 0.6281 0.0000
vt 0.2050 0.6281 0.0000
vt 0.2050 0.6690 0.0000
vt 0.9506 0.0867 0.0000
vt 0.9136 0.0867 0.0000
vt 0.0395 0.0839 0.0000
vt 0.0783 0.0839 0.0000
vt 0.9501 0.3168 0.0000
vt 0.9113 0.3168 0.0000
vt 0.0391 0.3140 0.0000
vt 0.0760 0.3140 0.0000
vt 0.0554 0.6291 0.0000
vt 0.0963 0.6291 0.0000
vt 0.0963 0.6727 0.0000
vt 0.0554 0.6727 0.0000
vt 0.0554 0.5710 0.0000
vt 0.0963 0.5710 0.0000
vt 0.0963 0.6146 0.0000
vt 0.0554 0.6146 0.0000
vt 0.0928 0.8015 0.0000
vt 0.0928 0.8424 0.0000
vt 0.0554 0.8424 0.0000
vt 0.0554 0.8015 0.0000
vt 0.0000 0.7856 0.0000
vt 0.0000 0.7447 0.0000
vt 0.0375 0.7447 0.0000
vt 0.0375 0.7856 0.0000
vt 0.9135 0.1302 0.0000
vt 0.8761 0.1302 0.0000
vt 0.0781 0.1276 0.0000
vt 0.1156 0.1276 0.0000
vt 0.9112 0.3603 0.0000
vt 0.8737 0.3603 0.0000
vt 0.0759 0.3577 0.0000
vt 0.1132 0.3577 0.0000
vt 0.8377 0.1715 0.0000
vt 0.1527 0.1715 0.0000
vt 0.1662 0.5710 0.0000
vt 0.2071 0.5710 0.0000
vt 0.2071 0.6136 0.0000
vt 0.1662 0.6136 0.0000
vt 0.8364 0.4016 0.0000
vt 0.1514 0.4016 0.0000
vt 0.1108 0.6287 0.0000
vt 0.1517 0.6287 0.0000
vt 0.1517 0.6713 0.0000
vt 0.1108 0.6713 0.0000
vt 0.2600 0.5710 0.0000
vt 0.2600 0.6119 0.0000
vt 0.2216 0.6119 0.0000
vt 0.2216 0.5710 0.0000
vt 0.7536 0.5565 0.0000
vt 0.7536 0.5156 0.0000
vt 0.7908 0.5156 0.0000
vt 0.7908 0.5565 0.0000
vt 0.8760 0.1715 0.0000
vt 0.1155 0.1715 0.0000
vt 0.8736 0.4016 0.0000
vt 0.1131 0.4016 0.0000
vt 0.8375 0.2156 0.0000
vt 0.1525 0.2156 0.0000
vt 0.0000 0.6295 0.0000
vt 0.0409 0.6295 0.0000
vt 0.0409 0.6736 0.0000
vt 0.0000 0.6736 0.0000
vt 0.8363 0.4457 0.0000
vt 0.1513 0.4457 0.0000
vt 0.0000 0.5710 0.0000
vt 0.0409 0.5710 0.0000
vt 0.0409 0.6150 0.0000
vt 0.0000 0.6150 0.0000
# 124 texture coords

g Box001
usemtl wire_085028177
s 1
f 1/1/1 2/2/1 3/3/1 4/4/1 
f 5/5/2 6/6/2 7/7/2 8/8/2 
f 9/9/3 10/10/3 11/11/3 12/12/3 
s 2
f 6/13/4 5/14/4 13/15/4 14/16/4 
f 10/17/4 9/18/4 14/16/4 13/15/4 
f 8/19/1 7/20/1 15/21/1 16/22/1 
f 12/23/1 11/24/1 17/25/1 18/26/1 
s 4
f 5/27/5 8/28/5 16/29/5 13/30/6 
f 11/31/5 10/32/5 13/30/6 17/33/5 
f 9/34/7 12/35/8 18/36/7 14/37/9 
f 7/38/10 6/39/10 14/37/9 15/40/10 
s 1
f 16/41/2 15/42/2 19/43/2 20/44/2 
f 18/45/11 17/46/11 21/47/11 22/48/11 
s 2
f 20/49/1 19/50/1 23/51/1 24/52/1 
f 22/53/1 21/54/1 25/55/1 26/56/1 
s 4
f 16/29/5 20/57/5 24/58/5 13/30/6 
f 21/59/6 17/33/5 13/30/6 25/60/6 
f 18/36/7 22/61/10 26/62/9 14/37/9 
f 19/63/10 15/40/10 14/37/9 23/64/10 
s 1
f 24/65/2 23/66/2 27/67/2 28/68/2 
f 26/69/3 25/70/3 29/71/3 30/72/3 
s 2
f 28/73/1 27/74/1 31/75/1 32/76/1 
f 30/77/1 29/78/1 33/79/1 34/80/1 
s 4
f 24/58/5 28/81/5 32/82/5 13/30/6 
f 29/83/6 25/60/6 13/30/6 33/84/6 
f 26/62/9 30/85/10 34/86/9 14/37/9 
f 27/87/10 23/64/10 14/37/9 31/88/10 
f 13/30/6 35/89/6 36/90/6 
s 1
f 32/91/2 31/92/2 37/93/2 38/94/2 
s 4
f 14/37/9 39/95/9 40/96/9 
s 1
f 34/97/3 33/98/3 41/99/3 42/100/3 
s 2
f 38/101/1 37/102/1 40/103/1 35/104/1 
f 42/105/1 41/106/1 36/107/1 39/108/1 
s 4
f 32/82/5 38/109/5 35/89/6 13/30/6 
f 41/110/6 33/84/6 13/30/6 36/90/6 
f 34/86/9 42/111/10 39/95/9 14/37/9 
f 37/112/10 31/88/10 14/37/9 40/96/9 
f 36/90/6 35/89/6 1/113/6 4/114/6 
s 8
f 35/115/12 40/116/12 2/117/12 1/118/12 
s 4
f 40/96/9 39/95/9 3/119/10 2/120/10 
s 8
f 39/121/3 36/122/3 4/123/3 3/124/3 
# 39 polygons - 2 triangles

