# 3ds Max Wavefront OBJ Exporter v0.97b - (c)2007 guruware
# File Created: 06.11.2019 20:38:48

mtllib 2.mtl

#
# object Object004
#

v  -2102.0452 202.9161 8.2469
v  -2102.8752 196.7526 12.4935
v  -2091.2593 208.0666 17.4172
v  -2163.0884 0.1399 26.0753
v  -2173.3193 0.1399 -33.0692
v  -1910.8826 0.1399 -22.9952
v  -1910.8826 0.1399 24.5707
v  -1910.7727 0.1399 -80.3590
v  -2046.3967 0.1399 -80.2585
v  -1910.7755 0.1498 -80.3591
v  -1910.7787 0.1613 -80.3592
v  -1739.0925 96.2225 22.3758
v  -1756.5787 146.2400 25.3163
v  -1832.4470 153.6194 27.9867
v  -1911.8414 0.6083 24.5496
v  -2101.6968 195.5131 17.2067
v  -2108.3779 201.9725 -72.4300
v  -2124.3452 183.9379 -70.4700
v  -2119.5278 194.5248 -70.5070
v  -2109.5374 201.2581 16.9533
v  -1907.5646 215.1839 26.4909
v  -1946.7416 208.4618 22.2987
v  -1945.0278 200.8684 24.6512
v  -1944.2777 220.7198 12.9912
v  -1910.7825 0.1744 -80.3593
v  -1910.8826 0.1399 -80.3627
v  -1910.7866 0.1891 -80.3594
v  -2019.0908 227.9648 20.5563
v  -1832.3605 153.6095 -80.6026
v  -1947.5854 166.2954 -82.5576
v  -1943.8475 220.6476 -82.7762
v  -1842.0793 202.2480 -81.5916
v  -2027.6873 169.1201 20.4453
v  -2028.2002 169.4710 20.4186
v  -2020.8459 227.0064 -81.0703
v  -2104.3826 205.0889 -30.9989
v  -2020.1108 227.6140 -31.6791
v  -1944.0626 220.6837 -31.2060
v  -1842.8209 202.4358 -24.8255
v  -2028.3043 168.8478 20.4168
v  -1843.5631 202.6241 28.4904
v  -1836.0575 194.8231 28.5418
v  -1835.3196 194.6548 -25.0622
v  -1834.5824 194.4872 -81.4337
v  -1833.0955 200.0090 28.5948
v  -1832.4282 209.4507 -25.2222
v  -1831.6306 199.6512 -81.4356
v  -1910.8073 0.2618 -80.3600
v  -1756.5790 146.2407 -79.4504
v  -1735.3212 96.2035 -75.0040
v  -2024.2699 168.9478 -81.1775
v  -1720.5383 66.3372 -72.0266
v  -1712.1093 40.1833 -69.9490
v  -1715.5918 18.3255 -69.3468
v  -1724.9845 0.1399 -69.7464
v  -2138.4844 128.9670 16.9301
v  -2139.6084 151.6508 16.8048
v  -1714.0575 0.1399 -24.9828
v  -1726.5114 0.1399 19.4677
v  -1764.3876 186.7590 -30.6495
v  -1780.0880 188.3093 -81.1212
v  -1774.4119 187.5155 27.2684
v  -1728.0979 66.4110 20.5244
v  -1720.0592 40.1853 19.1764
v  -1715.5917 18.3255 18.4366
v  -2161.0339 21.9005 21.4698
v  -2163.2148 49.9342 16.8555
v  -2152.3425 87.9118 16.9157
v  -2125.1694 192.1985 -25.8697
v  -2119.5291 194.5221 16.8130
v  -2126.0413 180.2843 16.8103
v  -1708.9973 18.3254 -25.4911
v  -2181.3669 21.8828 -33.0933
v  -1748.4185 146.1025 -30.8099
v  -1728.0531 96.1855 -28.7958
v  -1715.8228 66.3997 -27.4330
v  -1707.1036 40.1830 -26.4340
v  -2139.6084 151.6508 -26.0459
v  -2141.6157 128.4778 -26.2006
v  -2159.9756 87.5349 -26.1184
v  -2183.9502 49.7262 -19.4469
v  -2162.7349 0.1399 -69.7663
v  -2167.6538 21.8951 -70.2006
v  -2139.6084 151.6508 -70.3528
v  -2140.3542 128.6768 -71.7708
v  -2154.1934 87.8228 -71.6503
v  -2169.9619 49.8703 -70.3145
# 87 vertices

vn -0.6911 0.4709 0.5483
vn -0.7156 0.5441 0.4381
vn -0.7102 0.5250 0.4691
vn -0.0000 -1.0000 0.0000
vn -0.0000 -1.0000 -0.0000
vn 0.0000 -1.0000 -0.0000
vn 0.0333 0.0034 -0.9994
vn -0.0469 -0.0033 -0.9989
vn 0.0278 -0.0001 -0.9996
vn 0.0265 -0.0025 -0.9996
vn 0.0360 -0.0452 0.9983
vn 0.0281 -0.0409 0.9988
vn 0.0106 -0.0079 0.9999
vn -0.0452 -0.0398 0.9982
vn -0.0042 -0.0069 1.0000
vn -0.7262 0.5981 0.3389
vn -0.1260 0.0370 -0.9913
vn -0.2443 0.1116 -0.9633
vn -0.2361 0.1041 -0.9661
vn 0.6850 0.5908 0.4264
vn 0.6814 0.6155 0.3961
vn 0.6739 0.3554 0.6476
vn 0.5884 0.8059 0.0648
vn 0.0649 0.7086 0.7026
vn -0.0228 0.4377 0.8988
vn -0.0509 0.0984 0.9938
vn 0.0733 0.9208 0.3830
vn 0.0301 -0.0003 -0.9995
vn 0.0076 0.0176 -0.9998
vn 0.0344 -0.0019 -0.9994
vn -0.0838 0.7443 0.6626
vn 0.0201 -0.0219 -0.9996
vn -0.0004 -0.0061 -1.0000
vn -0.0033 -0.0043 -1.0000
vn 0.0064 -0.0191 -0.9998
vn -0.0659 0.0435 0.9969
vn -0.0466 0.0049 0.9989
vn -0.0848 0.9963 -0.0138
vn -0.4226 0.9059 -0.0274
vn -0.3960 0.9180 0.0199
vn -0.0878 0.9961 -0.0054
vn 0.1330 0.9911 -0.0014
vn 0.4730 0.8811 0.0015
vn 0.4711 0.8821 0.0035
vn 0.1305 0.9914 -0.0002
vn -0.0395 0.0031 0.9992
vn 0.3491 0.6660 0.6593
vn 0.2091 0.1957 0.9581
vn 0.7200 0.6940 0.0074
vn 0.7191 0.6948 0.0073
vn 0.0164 -0.0194 -0.9997
vn 0.9656 0.2599 0.0004
vn 0.0214 -0.0189 0.9996
vn -0.8902 0.4475 -0.0850
vn -0.9814 0.1916 -0.0138
vn -0.9766 0.2147 -0.0135
vn -0.8640 0.4938 -0.0983
vn 0.0149 -0.0233 -0.9996
vn 0.0092 -0.0024 -1.0000
vn 0.0065 -0.0676 -0.9977
vn 0.0473 -0.0564 -0.9973
vn -0.0560 0.0029 -0.9984
vn -0.0553 0.0068 -0.9984
vn 0.0653 -0.0623 -0.9959
vn 0.0620 -0.0487 -0.9969
vn 0.0588 -0.0265 -0.9979
vn 0.0570 -0.0075 -0.9983
vn -0.0310 0.0056 0.9995
vn -0.0337 0.0085 0.9994
vn 0.0000 -1.0000 0.0000
vn 0.2681 0.9569 -0.1121
vn 0.2835 0.9588 -0.0174
vn 0.2910 0.9562 -0.0307
vn 0.2150 0.9759 -0.0369
vn -0.0030 -0.0414 -0.9991
vn 0.0138 -0.0413 0.9991
vn 0.0380 -0.0438 0.9983
vn 0.0352 -0.0333 0.9988
vn 0.0315 -0.0007 0.9995
vn 0.0276 0.0400 0.9988
vn 0.0058 0.2065 0.9784
vn 0.0038 0.1835 0.9830
vn -0.0148 0.0796 0.9967
vn -0.0288 0.0080 0.9996
vn -0.3330 0.9423 -0.0348
vn -0.5088 0.8607 0.0163
vn -0.3191 0.4560 0.8308
vn -0.3529 0.6915 0.6303
vn -0.0323 0.0178 0.9993
vn -0.0323 0.0203 0.9993
vn 0.9419 -0.2873 -0.1737
vn 0.9865 -0.1608 0.0315
vn 0.9451 -0.3267 0.0067
vn 0.8701 -0.4447 -0.2124
vn -0.9622 0.0086 0.2721
vn -0.9784 -0.2062 -0.0141
vn -0.9613 -0.2753 -0.0077
vn -0.9773 0.1280 0.1690
vn 0.8907 0.4303 -0.1464
vn 0.9214 0.3879 -0.0232
vn 0.9277 0.3729 0.0171
vn 0.9111 0.3909 -0.1309
vn 0.9353 0.3493 0.0561
vn 0.9220 0.3739 -0.1005
vn 0.9908 0.1121 0.0752
vn 0.9881 0.0890 -0.1257
vn 0.8837 0.4220 -0.2022
vn 0.9289 0.3651 -0.0616
vn -0.9016 0.4210 0.0991
vn -0.9051 0.4140 0.0971
vn -0.9242 0.3819 0.0019
vn -0.9771 0.2126 -0.0000
vn -0.9803 0.1910 0.0512
vn -0.9708 0.2394 0.0135
vn -0.9829 0.1586 0.0942
vn -0.8891 0.4574 0.0148
vn -0.9011 0.3646 0.2348
vn -0.9790 0.1223 0.1633
vn -0.8946 0.0694 0.4415
vn -0.2651 0.6960 0.6673
vn -0.8932 0.4456 0.0609
vn -0.8662 0.4940 0.0759
vn 0.2089 0.9628 0.1715
vn 0.2742 0.9568 0.0968
vn -0.5487 0.8359 -0.0132
vn 0.9722 -0.1359 0.1909
vn 0.8391 -0.4905 0.2351
vn -0.9324 -0.1703 -0.3188
vn -0.9378 -0.2174 -0.2705
vn 0.9177 0.3690 0.1476
vn 0.9213 0.3277 0.2092
vn 0.9203 0.3063 0.2433
vn 0.9532 0.1991 0.2275
vn 0.9156 0.3765 0.1413
vn -0.9064 0.4121 -0.0931
vn -0.9029 0.4193 -0.0943
vn -0.9757 0.2162 -0.0344
vn -0.9776 0.2042 -0.0504
vn -0.9145 0.3758 -0.1495
vn -0.9420 0.1770 -0.2851
vn -0.0220 0.0498 -0.9985
vn -0.0839 0.0262 -0.9961
vn 0.0008 -0.1005 0.9949
vn 1.0000 0.0000 -0.0000
vn -0.0824 -0.0055 -0.9966
vn -0.0709 0.0107 -0.9974
vn -0.0866 -0.0224 -0.9960
vn -0.0897 -0.0402 -0.9952
# 148 vertex normals

vt 0.0840 0.5259 0.0000
vt 0.0863 0.5196 0.0000
vt 0.1000 0.5156 0.0000
vt 0.2022 0.5011 0.0000
vt 0.2022 0.4807 0.0000
vt 0.4961 0.4807 0.0000
vt 0.4961 0.5011 0.0000
vt 0.4938 0.2301 0.0000
vt 0.6529 0.2302 0.0000
vt 0.7230 0.1139 0.0000
vt 0.7216 0.1715 0.0000
vt 0.6097 0.1715 0.0000
vt 0.4951 0.0005 0.0000
vt 0.4962 0.0000 0.0000
vt 0.2525 0.2156 0.0000
vt 0.2387 0.2120 0.0000
vt 0.2412 0.2078 0.0000
vt 0.7635 0.4457 0.0000
vt 0.7812 0.4350 0.0000
vt 0.7808 0.4457 0.0000
vt 0.0711 0.5156 0.0000
vt 0.2235 0.2156 0.0000
vt 0.5073 0.2156 0.0000
vt 0.4572 0.2118 0.0000
vt 0.4571 0.2008 0.0000
vt 0.3047 0.5178 0.0000
vt 0.3548 0.5156 0.0000
vt 0.3045 0.5281 0.0000
vt 0.4939 0.2301 0.0000
vt 0.4938 0.2302 0.0000
vt 0.2017 0.5156 0.0000
vt 0.3542 0.2156 0.0000
vt 0.3793 0.4016 0.0000
vt 0.5337 0.4016 0.0000
vt 0.5312 0.4457 0.0000
vt 0.3888 0.4457 0.0000
vt 0.3524 0.1717 0.0000
vt 0.3517 0.1720 0.0000
vt 0.1994 0.5565 0.0000
vt 0.0728 0.5565 0.0000
vt 0.0784 0.5412 0.0000
vt 0.2004 0.5418 0.0000
vt 0.3048 0.5423 0.0000
vt 0.4483 0.5359 0.0000
vt 0.4494 0.5564 0.0000
vt 0.3051 0.5565 0.0000
vt 0.3517 0.1715 0.0000
vt 0.5978 0.2156 0.0000
vt 0.6086 0.2098 0.0000
vt 0.4572 0.5360 0.0000
vt 0.4582 0.5565 0.0000
vt 0.3781 0.4399 0.0000
vt 0.6131 0.2156 0.0000
vt 0.4639 0.5360 0.0000
vt 0.4628 0.5565 0.0000
vt 0.3735 0.4457 0.0000
vt 0.2675 0.4016 0.0000
vt 0.2612 0.3438 0.0000
vt 0.6324 0.4016 0.0000
vt 0.6369 0.4457 0.0000
vt 0.2563 0.3063 0.0000
vt 0.2558 0.2759 0.0000
vt 0.2649 0.2505 0.0000
vt 0.2773 0.2301 0.0000
vt 0.2062 0.1448 0.0000
vt 0.2069 0.1715 0.0000
vt 0.7254 0.4807 0.0000
vt 0.7109 0.5011 0.0000
vt 0.5680 0.5360 0.0000
vt 0.5421 0.5565 0.0000
vt 0.2942 0.4457 0.0000
vt 0.7038 0.2154 0.0000
vt 0.7237 0.0780 0.0000
vt 0.7244 0.0474 0.0000
vt 0.7249 0.0224 0.0000
vt 0.7110 -0.0001 0.0000
vt 0.2023 0.0000 0.0000
vt 0.2030 0.0261 0.0000
vt 0.2039 0.0587 0.0000
vt 0.2050 0.0976 0.0000
vt 0.0555 0.5360 0.0000
vt 0.0555 0.5156 0.0000
vt 0.2076 0.2014 0.0000
vt 0.2080 0.2156 0.0000
vt 0.5579 0.0250 0.0000
vt 0.5091 0.0257 0.0000
vt 0.5094 0.0035 0.0000
vt 0.5592 0.0021 0.0000
vt 0.5038 0.4182 0.0000
vt 0.5521 0.4181 0.0000
vt 0.5521 0.4428 0.0000
vt 0.5038 0.4429 0.0000
vt 0.5560 0.1716 0.0000
vt 0.5073 0.1707 0.0000
vt 0.5078 0.1129 0.0000
vt 0.5548 0.1129 0.0000
vt 0.5073 0.0798 0.0000
vt 0.5521 0.0793 0.0000
vt 0.5078 0.0488 0.0000
vt 0.5530 0.0511 0.0000
vt 0.5586 0.2219 0.0000
vt 0.5067 0.2172 0.0000
vt 0.5034 0.2462 0.0000
vt 0.5034 0.2321 0.0000
vt 0.5517 0.2320 0.0000
vt 0.5518 0.2753 0.0000
vt 0.5035 0.2754 0.0000
vt 0.5519 0.3014 0.0000
vt 0.5035 0.3015 0.0000
vt 0.5519 0.3446 0.0000
vt 0.5036 0.3447 0.0000
vt 0.5520 0.3864 0.0000
vt 0.5037 0.3865 0.0000
vt 0.2022 0.4602 0.0000
vt 0.3527 0.4652 0.0000
vt 0.4472 0.5155 0.0000
vt 0.4561 0.5156 0.0000
vt 0.4606 0.5156 0.0000
vt 0.4962 0.4602 0.0000
vt 0.7127 0.4602 0.0000
vt 0.5513 0.5156 0.0000
vt 0.0555 0.5565 0.0000
vt 0.4605 0.0238 0.0000
vt 0.4597 0.0006 0.0000
vt 0.6004 0.4180 0.0000
vt 0.6004 0.4427 0.0000
vt 0.4586 0.1703 0.0000
vt 0.4593 0.1130 0.0000
vt 0.4598 0.0789 0.0000
vt 0.4601 0.0488 0.0000
vt 0.4558 0.2190 0.0000
vt 0.6000 0.2320 0.0000
vt 0.6001 0.2424 0.0000
vt 0.6001 0.2752 0.0000
vt 0.6002 0.3013 0.0000
vt 0.6002 0.3445 0.0000
vt 0.6003 0.3863 0.0000
vt 0.7831 0.3749 0.0000
vt 0.7822 0.4016 0.0000
vt 0.7859 0.2907 0.0000
vt 0.7845 0.3297 0.0000
vt 0.7870 0.2581 0.0000
vt 0.7878 0.2301 0.0000
# 143 texture coords

g Object004
usemtl Material__25
s 1
f 1/1/1 2/2/2 3/3/3 
f 4/4/4 5/5/5 6/6/5 7/7/6 
s 2
f 8/8/7 9/9/8 10/8/9 
f 10/8/9 9/9/8 11/8/10 
s 4
f 12/10/11 13/11/12 14/12/13 15/13/14 7/14/15 
s 1
f 3/15/3 2/16/2 16/17/16 
s 2
f 17/18/17 18/19/18 19/20/19 
f 20/21/20 2/2/21 1/1/22 
f 2/16/21 20/22/20 16/17/23 
s 4
f 21/23/24 22/24/25 23/25/26 
f 22/26/25 21/27/24 24/28/27 
s 2
f 11/8/10 9/9/8 25/8/28 
f 26/29/29 27/30/30 25/8/28 
s 4
f 28/31/31 22/26/25 24/28/27 
f 22/24/25 28/32/31 23/25/26 
s 2
f 29/33/32 30/34/33 31/35/34 32/36/35 
s 4
f 33/37/36 23/25/26 28/32/31 34/38/37 
f 35/39/38 17/40/39 36/41/40 37/42/41 
f 38/43/42 39/44/43 32/45/44 31/46/45 
f 23/25/26 33/37/36 40/47/46 14/12/13 41/48/47 21/23/24 
f 14/12/13 42/49/48 41/48/47 
f 32/45/44 39/44/43 43/50/49 44/51/50 
s 2
f 32/36/35 44/52/51 29/33/32 
s 4
f 14/12/52 45/53/53 42/49/48 14/12/13 
s 1
f 44/51/54 43/50/55 46/54/56 47/55/57 
s 2
f 44/52/51 47/56/58 29/33/32 
f 27/30/30 26/29/29 48/30/59 
f 30/34/33 29/33/32 48/30/59 
f 29/33/32 49/57/60 50/58/61 27/30/30 48/30/59 
f 31/35/34 30/34/33 51/59/62 35/60/63 
f 25/8/28 52/61/64 53/62/65 11/8/10 
f 10/8/9 54/63/66 55/64/67 8/8/7 
s 4
f 56/65/68 15/13/14 40/47/46 57/66/69 
f 15/13/14 14/12/13 40/47/46 
f 40/47/46 33/37/36 34/38/37 
s 1
f 7/7/6 6/6/5 58/67/70 59/68/6 
s 4
f 14/12/52 14/12/13 13/11/12 
s 8
f 47/55/71 46/54/72 60/69/73 61/70/74 
s 2
f 49/57/60 29/33/32 47/56/58 61/71/75 
f 52/61/64 25/8/28 27/30/30 50/58/61 
f 54/63/66 10/8/9 11/8/10 53/62/65 
s 4
f 13/11/12 62/72/76 45/53/53 14/12/52 
f 12/10/11 7/14/15 63/73/77 
f 63/73/77 7/14/15 64/74/78 
f 64/74/78 7/14/15 65/75/79 
f 65/75/79 7/14/15 59/76/80 
f 4/77/81 7/14/15 66/78/82 
s 2
f 30/34/33 48/30/59 9/9/8 51/59/62 
s 4
f 66/78/82 7/14/15 67/79/83 
f 67/79/83 7/14/15 68/80/84 
f 68/80/84 7/14/15 15/13/14 56/65/68 
f 1/1/85 36/41/40 69/81/86 70/82/87 20/21/88 
f 57/66/69 40/47/46 71/83/89 
f 71/83/89 40/47/46 16/17/90 20/22/88 70/84/87 
s 16
f 54/85/91 72/86/92 58/87/93 55/88/94 
s 8
f 66/89/95 73/90/96 5/91/97 4/92/98 
s 16
f 49/93/99 74/94/100 75/95/101 50/96/102 
f 50/96/102 75/95/101 76/97/103 52/98/104 
f 52/98/104 76/97/103 77/99/105 53/100/106 
f 53/100/106 77/99/105 72/86/92 54/85/91 
f 61/101/107 60/102/108 74/94/100 49/93/99 
s 8
f 71/103/109 70/104/110 69/105/111 78/106/112 57/107/113 
f 57/107/113 78/106/112 79/108/114 56/109/115 
f 56/109/115 79/108/114 80/110/116 68/111/117 
f 68/111/117 80/110/116 81/112/118 67/113/119 
f 67/113/119 81/112/118 73/90/96 66/89/95 
s 1
f 82/114/5 9/115/5 6/6/5 5/5/5 
s 4
f 3/3/120 28/31/31 37/42/41 36/41/40 1/1/85 
f 21/27/24 41/116/47 39/44/43 38/43/42 24/28/27 
f 39/44/43 41/116/47 42/117/48 43/50/49 
s 1
f 42/117/121 45/118/122 46/54/56 43/50/55 
f 6/6/5 8/119/4 55/120/70 58/67/70 
s 8
f 46/54/72 45/118/123 62/121/124 60/69/73 
s 4
f 36/41/40 17/40/39 19/122/125 69/81/86 
s 16
f 65/123/126 59/124/127 58/87/93 72/86/92 
s 8
f 83/125/128 82/126/129 5/91/97 73/90/96 
s 16
f 13/127/130 12/128/131 75/95/101 74/94/100 
f 12/128/131 63/129/132 76/97/103 75/95/101 
f 63/129/132 64/130/133 77/99/105 76/97/103 
f 64/130/133 65/123/126 72/86/92 77/99/105 
f 62/131/134 13/127/130 74/94/100 60/102/108 
s 8
f 69/105/111 19/132/135 18/133/136 84/134/137 78/106/112 
f 84/134/137 85/135/138 79/108/114 78/106/112 
f 85/135/138 86/136/139 80/110/116 79/108/114 
f 86/136/139 87/137/140 81/112/118 80/110/116 
f 87/137/140 83/125/128 73/90/96 81/112/118 
s 2
f 9/9/8 85/138/141 84/139/142 51/59/62 
f 84/139/142 18/19/18 17/18/17 35/60/63 51/59/62 
s 4
f 24/28/27 38/43/42 37/42/41 28/31/31 
f 38/43/42 31/46/45 35/39/38 37/42/41 
f 28/32/31 3/15/120 34/38/37 
f 40/47/46 34/38/37 3/15/120 16/17/90 
f 25/8/143 9/9/144 26/29/143 
s 2
f 48/30/59 26/29/29 9/9/8 
s 1
f 6/6/5 9/115/5 8/119/4 
s 2
f 9/9/8 87/140/145 86/141/146 
f 9/9/8 83/142/147 87/140/145 
f 9/9/8 82/143/148 83/142/147 
f 9/9/8 86/141/146 85/138/141 
# 62 polygons - 37 triangles

