# 3ds Max Wavefront OBJ Exporter v0.97b - (c)2007 guruware
# File Created: 06.11.2019 20:38:54

mtllib 3.mtl

#
# object Object002
#

v  -1447.9082 182.9217 7.8520
v  -1446.1902 177.7688 12.2145
v  -1434.2029 182.9217 17.1956
v  -1477.8203 0.1399 26.0722
v  -1488.0513 0.1399 -33.0692
v  -1226.7491 0.1399 -29.7035
v  -1225.6211 0.1399 23.2871
v  -1232.3582 0.1399 -80.3845
v  -1361.9031 0.1399 -76.7047
v  -1232.3602 0.1498 -80.3844
v  -1232.3628 0.1613 -80.3844
v  -1030.7644 96.1850 17.3005
v  -1031.7725 146.0897 17.3998
v  -1127.8337 147.3513 23.1462
v  -1226.5576 0.6083 23.2696
v  -1443.9058 176.2193 17.0349
v  -1457.5286 185.4195 -71.2774
v  -1472.4707 176.1915 -69.8718
v  -1472.2025 185.3596 -69.8988
v  -1459.0354 185.4195 16.8498
v  -1215.5061 185.1680 23.4581
v  -1260.9830 176.0484 20.1289
v  -1258.6724 171.2817 22.5228
v  -1258.7365 184.0194 10.2789
v  -1232.3656 0.1744 -80.3842
v  -1232.4594 0.1399 -80.3804
v  -1232.3687 0.1891 -80.3841
v  -1346.8730 185.1680 19.6463
v  -1145.4307 147.3513 -86.6561
v  -1264.7153 147.3513 -79.2869
v  -1262.7878 184.0193 -79.3428
v  -1152.5074 187.6652 -85.8649
v  -1348.6106 147.5293 19.5870
v  -1349.2261 147.7838 19.5661
v  -1349.8677 184.6561 -77.0865
v  -1452.7164 186.1296 -32.2870
v  -1348.2736 184.9927 -35.3238
v  -1259.4614 184.0194 -36.2436
v  -1139.6267 187.6653 -32.7048
v  -1349.2533 147.3513 19.5651
v  -1137.8527 187.6652 23.3788
v  -1128.6077 182.7236 23.1663
v  -1130.6010 182.7236 -33.2953
v  -1144.5978 182.7236 -86.7536
v  -1127.8336 147.3513 23.1462
v  -1124.6890 187.6653 23.0608
v  -1126.7784 195.6626 -33.5651
v  -1141.2661 187.6652 -87.1531
v  -1232.3846 0.2618 -80.3835
v  -1067.7196 146.0903 -101.0383
v  -1063.5662 96.1852 -102.1968
v  -1345.9302 147.3513 -77.2029
v  -1060.2545 66.3352 -103.1572
v  -1059.8557 40.1830 -103.2751
v  -1065.7524 18.3253 -101.5807
v  -1073.8435 0.1399 -99.4197
v  -1460.7544 124.4336 16.8342
v  -1473.3135 147.3513 16.7565
v  -1034.8701 0.1399 -44.3655
v  -1041.2756 0.1399 18.2919
v  -1038.4849 186.4134 -43.7587
v  -1085.5605 186.4832 -96.5993
v  -1046.8669 186.3437 18.7801
v  -1030.1630 66.3996 17.2408
v  -1029.6333 40.1830 17.1880
v  -1029.1919 18.3253 17.1438
v  -1468.1062 21.8822 21.4436
v  -1467.2917 49.7091 16.7856
v  -1461.8662 86.4485 16.8247
v  -1481.8486 188.2789 -26.1157
v  -1472.2012 185.3573 16.7607
v  -1472.5630 172.9936 16.7593
v  -1028.8445 18.3253 -45.4153
v  -1487.4149 21.8822 -33.1194
v  -1027.0219 146.0900 -45.7424
v  -1024.1855 96.1851 -46.2604
v  -1023.2765 66.3996 -46.4288
v  -1022.7690 40.1830 -46.5233
v  -1473.3137 147.3513 -26.6137
v  -1464.0583 124.4336 -27.0967
v  -1469.2395 86.4485 -26.8335
v  -1486.6005 49.7091 -19.5006
v  -1477.4673 0.1399 -69.3583
v  -1474.4023 21.8822 -69.6759
v  -1473.3147 147.3513 -69.7867
v  -1462.7329 124.4336 -70.8093
v  -1463.6604 86.4485 -70.7235
v  -1473.5881 49.7091 -69.7589
# 88 vertices

vn -0.5015 0.4555 0.7355
vn -0.5116 0.5606 0.6512
vn -0.5129 0.5949 0.6189
vn -0.0000 -1.0000 0.0000
vn -0.0801 -0.0083 -0.9968
vn -0.0447 0.0002 -0.9990
vn -0.0752 -0.0085 -0.9971
vn -0.0772 -0.0088 -0.9970
vn 0.0451 -0.0094 0.9989
vn 0.0583 -0.0047 0.9983
vn 0.0202 -0.0180 0.9996
vn -0.0331 -0.0260 0.9991
vn 0.0021 0.0115 0.9999
vn -0.5064 0.7217 0.4719
vn -0.0688 -0.0105 -0.9976
vn -0.0935 -0.0002 -0.9956
vn 0.5686 0.7503 0.3373
vn 0.5586 0.7955 0.2349
vn 0.5673 0.6340 0.5255
vn 0.5191 0.8542 0.0286
vn -0.0418 0.6921 0.7206
vn -0.0376 0.6140 0.7884
vn -0.0431 0.1544 0.9871
vn -0.0399 0.9562 0.2901
vn -0.0775 -0.0079 -0.9970
vn -0.0313 -0.0056 -0.9995
vn -0.0782 -0.0014 -0.9969
vn -0.0218 0.7128 0.7011
vn -0.1257 0.0153 -0.9919
vn -0.0425 -0.0009 -0.9991
vn -0.0442 0.0017 -0.9990
vn -0.0766 0.0061 -0.9970
vn -0.0186 -0.0545 0.9983
vn -0.0310 -0.0002 0.9995
vn 0.0097 0.9999 -0.0085
vn -0.0000 0.9998 -0.0182
vn 0.0384 0.9991 0.0184
vn 0.0047 1.0000 -0.0001
vn -0.0113 0.9999 0.0004
vn 0.2463 0.9686 -0.0349
vn 0.2244 0.9727 -0.0592
vn -0.0124 0.9999 0.0010
vn -0.0255 0.0006 0.9997
vn 0.1800 0.7353 0.6534
vn 0.1775 0.2871 0.9413
vn 0.4785 0.8757 -0.0645
vn 0.5141 0.8471 -0.1346
vn -0.1158 -0.0000 -0.9933
vn 0.0381 -0.0317 0.9988
vn 0.0500 -0.0039 0.9987
vn -0.8396 0.5207 0.1546
vn -0.9487 0.2832 0.1407
vn -0.9416 0.3076 0.1372
vn -0.8162 0.5613 0.1369
vn -0.1640 0.0115 -0.9864
vn -0.0473 -0.0035 -0.9989
vn -0.1783 0.0137 -0.9839
vn -0.1568 0.0252 -0.9873
vn -0.0408 -0.0001 -0.9992
vn -0.0428 -0.0027 -0.9991
vn -0.1353 0.0109 -0.9907
vn -0.1281 -0.0151 -0.9916
vn -0.1205 -0.0513 -0.9914
vn -0.1190 -0.0648 -0.9908
vn -0.0245 -0.0037 0.9997
vn -0.0226 -0.0034 0.9997
vn 0.0000 -1.0000 0.0000
vn 0.0588 0.9921 -0.1107
vn 0.0720 0.9964 -0.0440
vn 0.0841 0.9959 -0.0327
vn 0.0186 0.9997 -0.0153
vn -0.1664 0.0348 -0.9854
vn 0.0547 -0.0137 0.9984
vn 0.0314 -0.0014 0.9995
vn 0.0299 0.0150 0.9994
vn 0.0271 0.0451 0.9986
vn 0.0108 0.2036 0.9790
vn 0.0092 0.1857 0.9826
vn -0.0108 0.0779 0.9969
vn -0.0268 0.0015 0.9996
vn 0.0774 0.9967 0.0256
vn 0.0796 0.9968 0.0058
vn -0.0081 0.7200 0.6940
vn 0.0660 0.6819 0.7285
vn -0.0152 0.0051 0.9999
vn -0.0155 0.0288 0.9995
vn 0.7828 -0.3240 -0.5313
vn 0.9270 -0.2781 -0.2517
vn 0.8967 -0.3529 -0.2672
vn 0.7493 -0.3964 -0.5304
vn -0.9377 0.2271 0.2628
vn -0.9992 0.0363 -0.0143
vn -0.9949 0.1008 -0.0105
vn -0.8895 0.4302 0.1539
vn 0.7852 0.2411 -0.5704
vn 0.9440 0.1840 -0.2739
vn 0.9650 0.0431 -0.2587
vn 0.8220 0.0846 -0.5631
vn 0.9704 0.0302 -0.2397
vn 0.8358 0.0635 -0.5454
vn 0.9653 -0.1236 -0.2300
vn 0.8299 -0.1255 -0.5436
vn 0.7390 0.3355 -0.5842
vn 0.9164 0.2748 -0.2911
vn -0.9748 0.0285 0.2213
vn -0.9951 -0.0991 0.0016
vn -0.9569 -0.2905 0.0000
vn -0.9593 -0.2705 0.0816
vn -0.9902 -0.1390 0.0149
vn -0.9734 -0.2062 0.0999
vn -0.9641 0.2652 0.0124
vn -0.9561 0.1633 0.2435
vn -0.9797 0.1249 0.1568
vn -0.9054 0.0649 0.4196
vn -0.0279 0.7061 0.7076
vn -0.8114 0.5750 0.1050
vn -0.7770 0.6187 0.1160
vn 0.0245 0.9900 0.1389
vn 0.0766 0.9952 0.0602
vn 0.0195 0.9993 -0.0305
vn 0.9653 -0.2581 0.0403
vn 0.8323 -0.5477 0.0851
vn -0.9465 0.0603 -0.3170
vn -0.9518 0.1301 -0.2776
vn 0.9770 0.1972 0.0816
vn 0.9943 0.0212 0.1046
vn 0.9940 0.0197 0.1074
vn 0.9977 -0.0111 0.0674
vn 0.9438 0.3175 0.0922
vn -0.9758 0.0279 -0.2168
vn -0.9661 -0.2492 -0.0672
vn -0.9832 -0.1732 -0.0574
vn -0.9727 0.1688 -0.1593
vn -0.9480 0.1648 -0.2722
vn -0.0181 0.0327 -0.9993
vn -0.0576 -0.0016 -0.9983
vn 0.0284 0.0325 0.9991
vn -0.0645 -0.0055 -0.9979
vn -0.0615 -0.0034 -0.9981
vn -0.0630 -0.0032 -0.9980
vn -0.0634 -0.0056 -0.9980
# 141 vertex normals

vt 0.0840 0.5259 0.0000
vt 0.0863 0.5196 0.0000
vt 0.1000 0.5156 0.0000
vt 0.2022 0.5011 0.0000
vt 0.2022 0.4807 0.0000
vt 0.4961 0.4807 0.0000
vt 0.4961 0.5011 0.0000
vt 0.4938 0.2301 0.0000
vt 0.6529 0.2302 0.0000
vt 0.7230 0.1139 0.0000
vt 0.7216 0.1715 0.0000
vt 0.6097 0.1715 0.0000
vt 0.4951 0.0005 0.0000
vt 0.4962 0.0000 0.0000
vt 0.2525 0.2156 0.0000
vt 0.2387 0.2120 0.0000
vt 0.2412 0.2078 0.0000
vt 0.7635 0.4457 0.0000
vt 0.7812 0.4350 0.0000
vt 0.7808 0.4457 0.0000
vt 0.0711 0.5156 0.0000
vt 0.2235 0.2156 0.0000
vt 0.5073 0.2156 0.0000
vt 0.4572 0.2118 0.0000
vt 0.4571 0.2008 0.0000
vt 0.3047 0.5178 0.0000
vt 0.3548 0.5156 0.0000
vt 0.3045 0.5281 0.0000
vt 0.4939 0.2301 0.0000
vt 0.4938 0.2302 0.0000
vt 0.2017 0.5156 0.0000
vt 0.3542 0.2156 0.0000
vt 0.3793 0.4016 0.0000
vt 0.5337 0.4016 0.0000
vt 0.5312 0.4457 0.0000
vt 0.3888 0.4457 0.0000
vt 0.3524 0.1717 0.0000
vt 0.3517 0.1720 0.0000
vt 0.1994 0.5565 0.0000
vt 0.0728 0.5565 0.0000
vt 0.0784 0.5412 0.0000
vt 0.2004 0.5418 0.0000
vt 0.3048 0.5423 0.0000
vt 0.4483 0.5359 0.0000
vt 0.4494 0.5564 0.0000
vt 0.3051 0.5565 0.0000
vt 0.3517 0.1715 0.0000
vt 0.5978 0.2156 0.0000
vt 0.6086 0.2098 0.0000
vt 0.4572 0.5360 0.0000
vt 0.4582 0.5565 0.0000
vt 0.3781 0.4399 0.0000
vt 0.6131 0.2156 0.0000
vt 0.4639 0.5360 0.0000
vt 0.4628 0.5565 0.0000
vt 0.3735 0.4457 0.0000
vt 0.2675 0.4016 0.0000
vt 0.2612 0.3438 0.0000
vt 0.6324 0.4016 0.0000
vt 0.6369 0.4457 0.0000
vt 0.2563 0.3063 0.0000
vt 0.2558 0.2759 0.0000
vt 0.2649 0.2505 0.0000
vt 0.2773 0.2301 0.0000
vt 0.2062 0.1448 0.0000
vt 0.2069 0.1715 0.0000
vt 0.7254 0.4807 0.0000
vt 0.7109 0.5011 0.0000
vt 0.5680 0.5360 0.0000
vt 0.5421 0.5565 0.0000
vt 0.2942 0.4457 0.0000
vt 0.7038 0.2154 0.0000
vt 0.7237 0.0780 0.0000
vt 0.7244 0.0474 0.0000
vt 0.7249 0.0224 0.0000
vt 0.7110 -0.0001 0.0000
vt 0.2023 0.0000 0.0000
vt 0.2030 0.0261 0.0000
vt 0.2039 0.0587 0.0000
vt 0.2050 0.0976 0.0000
vt 0.0555 0.5360 0.0000
vt 0.0555 0.5156 0.0000
vt 0.2076 0.2014 0.0000
vt 0.2080 0.2156 0.0000
vt 0.5579 0.0250 0.0000
vt 0.5091 0.0257 0.0000
vt 0.5094 0.0035 0.0000
vt 0.5592 0.0021 0.0000
vt 0.5038 0.4182 0.0000
vt 0.5521 0.4181 0.0000
vt 0.5521 0.4428 0.0000
vt 0.5038 0.4429 0.0000
vt 0.5560 0.1716 0.0000
vt 0.5073 0.1707 0.0000
vt 0.5078 0.1129 0.0000
vt 0.5548 0.1129 0.0000
vt 0.5073 0.0798 0.0000
vt 0.5521 0.0793 0.0000
vt 0.5078 0.0488 0.0000
vt 0.5530 0.0511 0.0000
vt 0.5586 0.2219 0.0000
vt 0.5067 0.2172 0.0000
vt 0.5034 0.2462 0.0000
vt 0.5034 0.2321 0.0000
vt 0.5517 0.2320 0.0000
vt 0.5518 0.2753 0.0000
vt 0.5035 0.2754 0.0000
vt 0.5519 0.3014 0.0000
vt 0.5035 0.3015 0.0000
vt 0.5519 0.3446 0.0000
vt 0.5036 0.3447 0.0000
vt 0.5520 0.3864 0.0000
vt 0.5037 0.3865 0.0000
vt 0.2022 0.4602 0.0000
vt 0.3527 0.4652 0.0000
vt 0.4472 0.5155 0.0000
vt 0.4561 0.5156 0.0000
vt 0.4606 0.5156 0.0000
vt 0.4962 0.4602 0.0000
vt 0.7127 0.4602 0.0000
vt 0.5513 0.5156 0.0000
vt 0.0555 0.5565 0.0000
vt 0.4605 0.0238 0.0000
vt 0.4597 0.0006 0.0000
vt 0.6004 0.4180 0.0000
vt 0.6004 0.4427 0.0000
vt 0.4586 0.1703 0.0000
vt 0.4593 0.1130 0.0000
vt 0.4598 0.0789 0.0000
vt 0.4601 0.0488 0.0000
vt 0.4558 0.2190 0.0000
vt 0.6000 0.2320 0.0000
vt 0.6001 0.2424 0.0000
vt 0.6001 0.2752 0.0000
vt 0.6002 0.3013 0.0000
vt 0.6002 0.3445 0.0000
vt 0.6003 0.3863 0.0000
vt 0.7831 0.3749 0.0000
vt 0.7822 0.4016 0.0000
vt 0.7859 0.2907 0.0000
vt 0.7845 0.3297 0.0000
vt 0.7870 0.2581 0.0000
vt 0.7878 0.2301 0.0000
# 143 texture coords

g Object002
usemtl Material__25
s 1
f 1/1/1 2/2/2 3/3/3 
f 4/4/4 5/5/4 6/6/4 7/7/4 
s 2
f 8/8/5 9/9/6 10/8/7 
f 10/8/7 9/9/6 11/8/8 
s 4
f 12/10/9 13/11/10 14/12/11 15/13/12 7/14/13 
s 1
f 3/15/3 2/16/2 16/17/14 
s 2
f 17/18/15 18/19/16 19/20/16 
f 20/21/17 2/2/18 1/1/19 
f 2/16/18 20/22/17 16/17/20 
s 4
f 21/23/21 22/24/22 23/25/23 
f 22/26/22 21/27/21 24/28/24 
s 2
f 11/8/8 9/9/6 25/8/25 
f 26/29/26 27/30/27 25/8/25 
s 4
f 28/31/28 22/26/22 24/28/24 
f 22/24/22 28/32/28 23/25/23 
s 2
f 29/33/29 30/34/30 31/35/31 32/36/32 
s 4
f 33/37/33 23/25/23 28/32/28 34/38/34 
f 35/39/35 17/40/36 36/41/37 37/42/38 
f 38/43/39 39/44/40 32/45/41 31/46/42 
f 23/25/23 33/37/33 40/47/43 14/12/11 41/48/44 21/23/21 
f 14/12/11 42/49/45 41/48/44 
f 32/45/41 39/44/40 43/50/46 44/51/47 
s 2
f 32/36/32 44/52/48 29/33/29 
s 4
f 45/12/49 46/53/50 42/49/45 14/12/11 
s 1
f 44/51/51 43/50/52 47/54/53 48/55/54 
s 2
f 44/52/48 48/56/55 29/33/29 
f 27/30/27 26/29/26 49/30/56 
f 30/34/30 29/33/29 49/30/56 
f 29/33/29 50/57/57 51/58/58 27/30/27 49/30/56 
f 31/35/31 30/34/30 52/59/59 35/60/60 
f 25/8/25 53/61/61 54/62/62 11/8/8 
f 10/8/7 55/63/63 56/64/64 8/8/5 
s 4
f 57/65/65 15/13/12 40/47/43 58/66/66 
f 15/13/12 14/12/11 40/47/43 
f 40/47/43 33/37/33 34/38/34 
s 1
f 7/7/4 6/6/4 59/67/67 60/68/67 
s 4
f 45/12/49 14/12/11 13/11/10 
s 8
f 48/55/68 47/54/69 61/69/70 62/70/71 
s 2
f 50/57/57 29/33/29 48/56/55 62/71/72 
f 53/61/61 25/8/25 27/30/27 51/58/58 
f 55/63/63 10/8/7 11/8/8 54/62/62 
s 4
f 13/11/10 63/72/73 46/53/50 45/12/49 
f 12/10/9 7/14/13 64/73/74 
f 64/73/74 7/14/13 65/74/74 
f 65/74/74 7/14/13 66/75/75 
f 66/75/75 7/14/13 60/76/76 
f 4/77/77 7/14/13 67/78/78 
s 2
f 30/34/30 49/30/56 9/9/6 52/59/59 
s 4
f 67/78/78 7/14/13 68/79/79 
f 68/79/79 7/14/13 69/80/80 
f 69/80/80 7/14/13 15/13/12 57/65/65 
f 1/1/81 36/41/37 70/81/82 71/82/83 20/21/84 
f 58/66/66 40/47/43 72/83/85 
f 72/83/85 40/47/43 16/17/86 20/22/84 71/84/83 
s 16
f 55/85/87 73/86/88 59/87/89 56/88/90 
s 8
f 67/89/91 74/90/92 5/91/93 4/92/94 
s 16
f 50/93/95 75/94/96 76/95/97 51/96/98 
f 51/96/98 76/95/97 77/97/99 53/98/100 
f 53/98/100 77/97/99 78/99/101 54/100/102 
f 54/100/102 78/99/101 73/86/88 55/85/87 
f 62/101/103 61/102/104 75/94/96 50/93/95 
s 8
f 72/103/105 71/104/105 70/105/106 79/106/107 58/107/108 
f 58/107/108 79/106/107 80/108/109 57/109/110 
f 57/109/110 80/108/109 81/110/111 69/111/112 
f 69/111/112 81/110/111 82/112/113 68/113/114 
f 68/113/114 82/112/113 74/90/92 67/89/91 
s 1
f 83/114/4 9/115/4 6/6/4 5/5/4 
s 4
f 3/3/115 28/31/28 37/42/38 36/41/37 1/1/81 
f 21/27/21 41/116/44 39/44/40 38/43/39 24/28/24 
f 39/44/40 41/116/44 42/117/45 43/50/46 
s 1
f 42/117/116 46/118/117 47/54/53 43/50/52 
f 6/6/4 8/119/4 56/120/4 59/67/67 
s 8
f 47/54/69 46/118/118 63/121/119 61/69/70 
s 4
f 36/41/37 17/40/36 19/122/120 70/81/82 
s 16
f 66/123/121 60/124/122 59/87/89 73/86/88 
s 8
f 84/125/123 83/126/124 5/91/93 74/90/92 
s 16
f 13/127/125 12/128/126 76/95/97 75/94/96 
f 12/128/126 64/129/127 77/97/99 76/95/97 
f 64/129/127 65/130/128 78/99/101 77/97/99 
f 65/130/128 66/123/121 73/86/88 78/99/101 
f 63/131/129 13/127/125 75/94/96 61/102/104 
s 8
f 70/105/106 19/132/130 18/133/130 85/134/131 79/106/107 
f 85/134/131 86/135/132 80/108/109 79/106/107 
f 86/135/132 87/136/133 81/110/111 80/108/109 
f 87/136/133 88/137/134 82/112/113 81/110/111 
f 88/137/134 84/125/123 74/90/92 82/112/113 
s 2
f 9/9/6 86/138/135 85/139/136 52/59/59 
f 85/139/136 18/19/16 17/18/15 35/60/60 52/59/59 
s 4
f 24/28/24 38/43/39 37/42/38 28/31/28 
f 38/43/39 31/46/42 35/39/35 37/42/38 
f 28/32/28 3/15/115 34/38/34 
f 40/47/43 34/38/34 3/15/115 16/17/86 
f 25/8/137 9/9/137 26/29/137 
s 2
f 49/30/56 26/29/26 9/9/6 
s 1
f 6/6/4 9/115/4 8/119/4 
s 2
f 9/9/6 88/140/138 87/141/139 
f 9/9/6 84/142/140 88/140/138 
f 9/9/6 83/143/141 84/142/140 
f 9/9/6 87/141/139 86/138/135 
# 62 polygons - 37 triangles

