# 3ds Max Wavefront OBJ Exporter v0.97b - (c)2007 guruware
# File Created: 06.11.2019 20:39:01

mtllib 4.mtl

#
# object Box001
#

v  171.4339 173.5823 7.9208
v  173.1945 168.7332 12.1058
v  184.9820 175.4222 16.7527
v  818.1206 2.8269 -68.1939
v  816.1697 33.4402 -68.1939
v  816.1697 33.4402 16.7527
v  818.1206 2.8269 16.7527
v  -31.3139 0.1399 16.7527
v  -31.3139 33.5655 16.7527
v  -31.3139 33.5655 -68.1939
v  -31.3139 0.1399 -68.1939
v  815.5721 0.1399 16.7527
v  394.4547 0.1399 16.7527
v  394.4547 0.1399 -68.1939
v  394.5645 0.1399 -68.1939
v  815.1414 0.1399 -68.1939
v  815.5721 0.1399 -68.1939
v  813.2564 36.0697 -68.1939
v  784.2595 35.8307 -68.1939
v  784.2595 35.8307 16.7527
v  813.2564 36.0697 16.7527
v  -28.6231 36.2562 16.7527
v  2.7040 33.9865 16.7527
v  2.7040 33.9865 -68.1939
v  -28.6231 36.2562 -68.1939
v  817.5547 0.8116 16.7527
v  815.4576 35.1237 16.7527
v  815.3293 35.4249 16.7527
v  -30.6412 35.5836 -68.1939
v  394.5621 0.1498 -68.1939
v  781.9265 68.7405 -68.1939
v  775.5705 68.6380 16.7527
v  7.2856 70.6493 16.7527
v  3.9988 70.6362 -68.1939
v  778.9450 71.1894 -68.1939
v  750.2448 70.5526 -68.1939
v  750.2448 70.5526 16.7527
v  772.1146 71.0275 16.7527
v  10.3311 73.3044 16.7527
v  35.9858 70.8459 16.7527
v  35.9858 70.8459 -68.1939
v  6.7906 73.3147 -68.1939
v  774.3111 70.4624 16.7527
v  4.7473 72.6488 -68.1939
v  394.5594 0.1613 -68.1939
v  738.5803 99.3370 -68.1939
v  738.4205 99.7166 -68.1939
v  738.4205 99.7166 16.7527
v  38.7328 106.8476 16.7527
v  39.9016 106.8357 -68.1939
v  734.6405 102.6760 -68.1939
v  705.8420 102.9153 -68.1939
v  712.7220 103.0851 16.7527
v  731.3600 103.9274 16.7527
v  41.1175 108.2651 16.7527
v  67.6853 108.5017 16.7527
v  67.6853 108.5017 -68.1939
v  42.3992 108.2325 -68.1939
v  737.0299 101.4280 16.7527
v  40.3948 107.9462 -68.1939
v  699.7346 98.5307 -68.1939
v  485.7808 134.2669 16.7527
v  393.5179 0.6081 16.7527
v  672.0313 131.0811 16.7527
v  699.0402 125.1442 -68.1939
v  699.5387 125.1151 16.7527
v  99.9527 128.6501 -68.1939
v  357.1326 137.9369 -68.1939
v  394.5358 0.2618 -68.1939
v  67.6853 108.5018 16.7527
v  72.5227 126.5536 16.7527
v  72.5227 126.5536 -68.1939
v  698.1686 127.3381 -68.1939
v  672.0313 131.0811 -68.1939
v  696.1156 127.2887 16.7527
v  76.0310 129.1943 16.7527
v  99.9527 128.6501 16.7527
v  76.0310 129.1943 -68.1939
v  698.2337 126.7762 16.7527
v  73.6568 128.6209 -68.1939
v  698.6230 126.7960 -68.1939
v  175.4741 167.5280 16.7527
v  654.6309 163.9945 -0.2834
v  650.8466 160.6966 9.9338
v  661.7515 152.5046 16.7527
v  99.8520 167.0975 -68.1939
v  161.8963 174.6171 -68.1939
v  160.3939 174.3835 16.7527
v  397.1556 171.7701 16.7527
v  354.5156 164.9464 14.6478
v  357.1099 160.3202 16.7527
v  356.0549 172.4915 6.0509
v  99.8519 167.0975 3.4937
v  104.7858 167.2807 10.6978
v  106.8198 167.3869 16.7527
v  102.8707 166.0051 14.0971
v  99.8725 160.6655 16.7527
v  103.1703 164.1626 16.7527
v  99.8636 163.4745 12.7685
v  269.5731 142.0418 16.7527
v  394.5564 0.1744 -68.1939
v  394.5528 0.1891 -68.1939
v  270.6691 178.4154 16.7527
v  485.8814 134.2646 -68.1939
v  356.5386 172.4700 -68.1939
v  471.3270 170.9515 -68.1939
v  270.2034 142.1792 16.7527
v  638.6549 164.1209 16.7527
v  654.6309 163.9945 -68.1939
v  469.6082 171.0212 16.7527
v  485.7809 134.2669 16.7527
v  483.4892 170.4662 -68.1939
v  481.7778 170.5337 16.7527
v  479.1855 166.1290 16.7527
v  480.9104 166.0648 -68.1939
v  815.3293 35.4249 -68.1939
v  817.5547 0.8116 -68.1939
v  -30.6412 35.5836 16.7527
v  781.9158 68.7628 -68.1939
v  781.0227 70.6106 -68.1939
v  8.2243 72.6447 16.7527
v  736.6263 100.8320 -68.1939
v  39.1424 107.9740 16.7527
v  73.6568 128.6209 16.7527
# 124 vertices

vn -0.0115 0.9673 0.2535
vn -0.1045 0.6278 0.7713
vn -0.0744 0.9938 0.0823
vn 0.9980 0.0636 0.0000
vn 0.9999 0.0157 0.0001
vn -1.0000 0.0000 -0.0000
vn 0.0000 -1.0000 -0.0000
vn -1.0000 0.0000 -0.0001
vn -0.0082 1.0000 -0.0000
vn -0.1010 0.9949 0.0000
vn 0.0723 0.9974 0.0000
vn 0.0000 0.0000 1.0000
vn -0.0000 0.0000 1.0000
vn 0.0000 -0.0000 -1.0000
vn 0.0000 0.0000 -1.0000
vn -0.0002 0.0004 -1.0000
vn -0.0000 -0.0000 -1.0000
vn -0.0000 0.0001 -1.0000
vn 0.9856 0.1653 0.0370
vn -0.9966 0.0799 0.0193
vn -0.0220 0.9998 0.0001
vn 0.0895 0.9960 -0.0018
vn 0.0000 -0.0001 -1.0000
vn 0.9267 0.3757 0.0000
vn -0.9957 0.0922 -0.0069
vn -0.0127 0.9999 -0.0081
vn -0.0098 1.0000 -0.0003
vn -0.0000 -0.0000 1.0000
vn -0.0000 0.0000 -1.0000
vn -0.9659 0.2588 -0.0000
vn 0.1484 0.9889 0.0021
vn 0.0227 0.9997 0.0000
vn -0.0793 0.0955 0.9923
vn 0.0643 0.9732 0.2209
vn -0.1058 0.4118 0.9051
vn 0.8102 0.5787 0.0929
vn 0.3721 0.8342 0.4071
vn 0.8254 0.5595 0.0754
vn -0.0097 0.9952 0.0973
vn 0.0507 0.1116 0.9925
vn -0.0045 0.0158 0.9999
vn 0.0238 0.4250 0.9049
vn -0.0163 0.1764 0.9842
vn 0.0029 0.7513 0.6599
vn -0.0012 0.9984 0.0561
vn -0.0011 0.9516 0.3074
vn -0.1048 0.9945 0.0036
vn -0.1286 0.9914 0.0250
vn -0.2045 0.9744 0.0937
vn -0.2483 0.9636 0.0993
vn -0.1855 0.9820 0.0346
vn -0.0534 0.9985 -0.0120
vn -0.3651 0.9204 0.1397
vn -0.1136 0.1071 0.9877
vn -0.3370 0.3447 0.8761
vn -0.5947 0.6275 0.5025
vn -0.3273 0.3705 0.8692
vn -0.1299 0.1470 0.9806
vn -1.0000 -0.0026 0.0000
vn -0.9838 0.1456 0.1048
vn -0.9082 0.3679 0.1994
vn -0.6889 0.6442 0.3321
vn -0.9960 0.0826 0.0334
vn 0.0000 -0.0000 1.0000
vn -1.0000 -0.0027 0.0000
vn -0.0001 -0.0000 -1.0000
vn -0.0001 0.0002 -1.0000
vn 0.0127 0.9999 -0.0002
vn 0.0017 0.0082 1.0000
vn 0.0778 0.1547 0.9849
vn 0.4235 0.8420 0.3343
vn 0.0761 0.1512 0.9856
vn 0.0942 0.9935 0.0634
vn 0.4560 0.7836 0.4218
vn 0.0874 0.9934 0.0746
vn 0.0100 0.9998 -0.0147
vn 0.8852 0.4651 -0.0056
vn 0.2373 0.9714 0.0047
vn 0.2429 0.9700 0.0048
vn -0.4747 0.8801 -0.0086
vn -0.4846 0.8747 -0.0088
vn 0.0355 0.9994 0.0026
vn -0.2720 0.9623 -0.0062
vn -0.2882 0.9576 -0.0066
vn 0.9209 0.3899 -0.0000
vn 0.9628 -0.2703 -0.0000
vn -0.9487 0.3162 -0.0000
vn 0.8610 0.5041 0.0670
vn -0.9210 0.3877 0.0366
vn 0.6638 0.7479 -0.0042
vn -0.9272 0.3742 -0.0133
vn 0.8873 0.4612 -0.0004
vn -0.8767 0.4810 0.0000
vn 0.2970 0.9549 -0.0000
vn 0.3209 -0.9471 -0.0000
vn -0.3162 0.9487 0.0000
vn 0.2585 0.9658 0.0224
vn -0.3042 0.9525 0.0126
vn 0.4935 0.8698 -0.0011
vn -0.1436 0.9896 -0.0025
vn 0.3793 0.9253 0.0058
vn -0.2348 0.9721 0.0000
# 102 vertex normals

vt 0.0840 0.5259 0.0000
vt 0.0863 0.5196 0.0000
vt 0.1000 0.5156 0.0000
vt 0.0409 0.6912 0.0000
vt 0.0409 0.7271 0.0000
vt 0.0000 0.7271 0.0000
vt 0.0000 0.6912 0.0000
vt 0.0963 0.7449 0.0000
vt 0.0963 0.7839 0.0000
vt 0.0554 0.7839 0.0000
vt 0.0554 0.7449 0.0000
vt 0.9868 0.5011 0.0000
vt 0.4961 0.5011 0.0000
vt 0.4961 0.4602 0.0000
vt 0.4962 0.4602 0.0000
vt 0.9863 0.4602 0.0000
vt 0.9868 0.4602 0.0000
vt 0.0000 0.4602 0.0000
vt 0.0000 0.5011 0.0000
vt 0.1446 0.7267 0.0000
vt 0.1108 0.7267 0.0000
vt 0.1108 0.6858 0.0000
vt 0.1446 0.6858 0.0000
vt 0.7026 0.5156 0.0000
vt 0.7391 0.5156 0.0000
vt 0.7391 0.5565 0.0000
vt 0.7026 0.5565 0.0000
vt 0.9892 0.0008 0.0000
vt 0.9872 0.0424 0.0000
vt 0.9870 0.0428 0.0000
vt 0.9846 0.0436 0.0000
vt 0.9869 0.0000 0.0000
vt 0.0001 0.0000 0.0000
vt 0.4962 0.0000 0.0000
vt 0.0396 0.0406 0.0000
vt 0.9900 0.2301 0.0000
vt 0.9900 0.2705 0.0000
vt 0.9892 0.2729 0.0000
vt 0.9869 0.2737 0.0000
vt 0.9503 0.2737 0.0000
vt 0.4939 0.2301 0.0000
vt 0.4938 0.2301 0.0000
vt 0.0963 0.6872 0.0000
vt 0.0963 0.7273 0.0000
vt 0.0554 0.7273 0.0000
vt 0.0554 0.6879 0.0000
vt 0.0554 0.6872 0.0000
vt 0.1517 0.5710 0.0000
vt 0.1517 0.6111 0.0000
vt 0.1109 0.6112 0.0000
vt 0.1108 0.5710 0.0000
vt 0.1446 0.7822 0.0000
vt 0.1108 0.7822 0.0000
vt 0.1108 0.7412 0.0000
vt 0.1365 0.7412 0.0000
vt 0.1751 0.6281 0.0000
vt 0.2050 0.6281 0.0000
vt 0.2050 0.6690 0.0000
vt 0.1710 0.6690 0.0000
vt 0.9394 0.0867 0.0000
vt 0.9505 0.0444 0.0000
vt 0.9431 0.0836 0.0000
vt 0.9419 0.0859 0.0000
vt 0.0783 0.0839 0.0000
vt 0.9486 0.3137 0.0000
vt 0.9477 0.3160 0.0000
vt 0.9453 0.3168 0.0000
vt 0.9113 0.3168 0.0000
vt 0.0963 0.6691 0.0000
vt 0.0963 0.6696 0.0000
vt 0.0554 0.6696 0.0000
vt 0.0554 0.6291 0.0000
vt 0.0963 0.6291 0.0000
vt 0.0963 0.5710 0.0000
vt 0.0963 0.6115 0.0000
vt 0.0557 0.6117 0.0000
vt 0.0554 0.5710 0.0000
vt 0.0832 0.8424 0.0000
vt 0.0471 0.8424 0.0000
vt 0.0554 0.8015 0.0000
vt 0.0832 0.8015 0.0000
vt 0.0072 0.7447 0.0000
vt 0.0375 0.7447 0.0000
vt 0.0375 0.7856 0.0000
vt 0.0087 0.7856 0.0000
vt 0.9064 0.1294 0.0000
vt 0.9039 0.1302 0.0000
vt 0.9136 0.0867 0.0000
vt 0.9075 0.1271 0.0000
vt 0.1156 0.1276 0.0000
vt 0.9061 0.3572 0.0000
vt 0.9050 0.3595 0.0000
vt 0.9025 0.3603 0.0000
vt 0.8737 0.3603 0.0000
vt 0.1300 0.3520 0.0000
vt 0.1215 0.3577 0.0000
vt 0.0849 0.3576 0.0000
vt 0.6097 0.1715 0.0000
vt 0.4951 0.0005 0.0000
vt 0.8377 0.1715 0.0000
vt 0.2071 0.5710 0.0000
vt 0.2071 0.6105 0.0000
vt 0.1662 0.6105 0.0000
vt 0.1662 0.5710 0.0000
vt 0.8364 0.4016 0.0000
vt 0.5337 0.4016 0.0000
vt 0.4938 0.2302 0.0000
vt 0.1517 0.6287 0.0000
vt 0.1517 0.6682 0.0000
vt 0.1108 0.6682 0.0000
vt 0.1108 0.6287 0.0000
vt 0.2594 0.6119 0.0000
vt 0.2216 0.6119 0.0000
vt 0.2216 0.5710 0.0000
vt 0.2569 0.5710 0.0000
vt 0.7638 0.5156 0.0000
vt 0.7908 0.5156 0.0000
vt 0.7908 0.5565 0.0000
vt 0.7638 0.5565 0.0000
vt 0.8760 0.1685 0.0000
vt 0.8752 0.1707 0.0000
vt 0.8729 0.1715 0.0000
vt 0.8761 0.1302 0.0000
vt 0.1527 0.1715 0.0000
vt 0.8671 0.3986 0.0000
vt 0.8659 0.4009 0.0000
vt 0.8634 0.4016 0.0000
vt 0.1137 0.4016 0.0000
vt 0.1134 0.4008 0.0000
vt 0.1137 0.3984 0.0000
vt 0.2525 0.2156 0.0000
vt 0.2387 0.2120 0.0000
vt 0.2412 0.2078 0.0000
vt 0.0198 0.6736 0.0000
vt 0.0060 0.6713 0.0000
vt 0.0000 0.6570 0.0000
vt 0.8363 0.4457 0.0000
vt 0.7635 0.4457 0.0000
vt 0.0711 0.5156 0.0000
vt 0.2235 0.2156 0.0000
vt 0.5073 0.2156 0.0000
vt 0.4572 0.2118 0.0000
vt 0.4571 0.2008 0.0000
vt 0.3047 0.5178 0.0000
vt 0.3548 0.5156 0.0000
vt 0.3045 0.5281 0.0000
vt 0.0000 0.5565 0.0000
vt 0.0000 0.5310 0.0000
vt 0.0058 0.5227 0.0000
vt 0.0082 0.5156 0.0000
vt 0.0728 0.5565 0.0000
vt 0.0035 0.5187 0.0000
vt 0.1525 0.2081 0.0000
vt 0.1564 0.2120 0.0000
vt 0.1553 0.2148 0.0000
vt 0.1607 0.2156 0.0000
vt 0.0409 0.5710 0.0000
vt 0.0409 0.6075 0.0000
vt 0.0363 0.6108 0.0000
vt 0.0383 0.6145 0.0000
vt 0.0255 0.6150 0.0000
vt 0.0000 0.5710 0.0000
vt 0.3517 0.1715 0.0000
vt 0.0000 0.6150 0.0000
vt 0.2017 0.5156 0.0000
vt 0.3542 0.2156 0.0000
vt 0.3793 0.4016 0.0000
vt 0.5312 0.4457 0.0000
vt 0.3888 0.4457 0.0000
vt 0.3524 0.1717 0.0000
vt 0.8376 0.1990 0.0000
vt 0.8306 0.2129 0.0000
vt 0.8160 0.2156 0.0000
vt 0.6635 0.5156 0.0000
vt 0.6779 0.5236 0.0000
vt 0.6850 0.5354 0.0000
vt 0.3051 0.5565 0.0000
vt 0.0409 0.6295 0.0000
vt 0.0409 0.6736 0.0000
vt 0.0000 0.6295 0.0000
vt 0.4472 0.5155 0.0000
vt 0.4494 0.5564 0.0000
vt 0.5978 0.2156 0.0000
vt 0.4628 0.5565 0.0000
vt 0.4606 0.5156 0.0000
vt 0.6850 0.5565 0.0000
vt 0.3735 0.4457 0.0000
vt 0.1513 0.4457 0.0000
vt 0.1514 0.4016 0.0000
vt 0.6086 0.2098 0.0000
vt 0.4561 0.5156 0.0000
vt 0.4582 0.5565 0.0000
vt 0.3781 0.4399 0.0000
vt 0.6131 0.2156 0.0000
vt 0.1493 0.7267 0.0000
vt 0.1470 0.7267 0.0000
vt 0.1470 0.6858 0.0000
vt 0.1473 0.6858 0.0000
vt 0.1493 0.6858 0.0000
vt 0.9899 0.5011 0.0000
vt 0.9883 0.5011 0.0000
vt 0.9883 0.4602 0.0000
vt 0.9899 0.4602 0.0000
vt 0.6981 0.5156 0.0000
vt 0.7004 0.5156 0.0000
vt 0.7004 0.5565 0.0000
vt 0.6981 0.5565 0.0000
vt 0.1491 0.7822 0.0000
vt 0.1469 0.7822 0.0000
vt 0.1391 0.7412 0.0000
vt 0.1417 0.7412 0.0000
vt 0.1492 0.7822 0.0000
vt 0.1702 0.6281 0.0000
vt 0.1726 0.6281 0.0000
vt 0.1686 0.6690 0.0000
vt 0.1663 0.6690 0.0000
vt 0.0881 0.8427 0.0000
vt 0.0857 0.8425 0.0000
vt 0.0857 0.8016 0.0000
vt 0.0883 0.8018 0.0000
vt 0.0024 0.7447 0.0000
vt 0.0048 0.7447 0.0000
vt 0.0062 0.7856 0.0000
vt 0.0037 0.7856 0.0000
vt 0.2623 0.6100 0.0000
vt 0.2608 0.6110 0.0000
vt 0.2590 0.5702 0.0000
vt 0.2611 0.5695 0.0000
vt 0.7587 0.5156 0.0000
vt 0.7612 0.5156 0.0000
vt 0.7612 0.5565 0.0000
vt 0.7587 0.5565 0.0000
vt 0.0823 0.3577 0.0000
vt 0.0819 0.3546 0.0000
vt 0.0818 0.3541 0.0000
vt 0.0399 0.3132 0.0000
vt 0.0391 0.3109 0.0000
vt 0.0760 0.3140 0.0000
vt 0.0422 0.3140 0.0000
vt 0.0030 0.2700 0.0000
vt 0.0021 0.2677 0.0000
vt 0.0392 0.2707 0.0000
vt 0.0054 0.2707 0.0000
vt 0.0037 0.2301 0.0000
vt 0.0003 0.2331 0.0000
vt 0.0009 0.2309 0.0000
vt 0.0032 0.2301 0.0000
vt 0.9507 0.0436 0.0000
vt 0.9898 0.0032 0.0000
vt 0.9879 0.0404 0.0000
vt 0.0448 0.0808 0.0000
vt 0.0484 0.0839 0.0000
vt 0.0459 0.0831 0.0000
vt 0.0000 0.0376 0.0000
vt 0.0031 0.0406 0.0000
vt 0.0008 0.0398 0.0000
vt 0.0829 0.1268 0.0000
vt 0.0853 0.1276 0.0000
vt 0.1220 0.1683 0.0000
vt 0.1257 0.1715 0.0000
vt 0.1232 0.1707 0.0000
vt 0.0819 0.1245 0.0000
# 262 texture coords

g Box001
usemtl Material__25
s 1
f 1/1/1 2/2/2 3/3/3 
f 4/4/4 5/5/5 6/6/5 7/7/5 
f 8/8/6 9/9/6 10/10/6 11/11/6 8/8/6 
s 2
f 12/12/7 13/13/7 14/14/7 15/15/7 16/16/7 17/17/7 12/12/7 
f 11/18/8 14/14/8 13/13/8 8/19/8 
f 18/20/9 19/21/10 20/22/10 21/23/9 
f 22/24/11 23/25/10 24/26/10 25/27/11 
s 4
f 26/28/12 27/29/12 28/30/12 21/31/12 12/32/12 12/32/12 
f 8/33/12 13/34/13 23/35/12 8/33/12 
f 11/36/14 10/37/14 29/38/14 25/39/14 24/40/15 14/41/16 
f 15/42/17 14/41/16 30/42/18 
s 1
f 19/43/19 31/44/19 32/45/19 20/46/19 20/47/19 
f 23/48/20 33/49/20 34/50/20 24/51/20 
s 2
f 35/52/21 36/53/10 37/54/10 38/55/21 
f 39/56/22 40/57/10 41/58/10 42/59/22 
s 4
f 38/60/12 20/61/12 32/62/12 43/63/12 
f 40/64/12 23/35/12 23/35/12 13/34/13 
f 24/40/15 34/65/15 44/66/15 42/67/15 41/68/15 14/41/16 
f 30/42/18 14/41/16 45/42/23 
s 1
f 46/69/24 47/70/24 48/71/24 37/72/24 36/73/24 
f 40/74/25 49/75/25 50/76/25 41/77/25 40/74/25 
s 2
f 51/78/26 52/79/10 53/80/10 54/81/26 
f 55/82/27 56/83/10 57/84/10 58/85/27 
s 4
f 59/86/12 54/87/12 37/88/12 48/89/12 
f 56/90/28 40/64/12 40/64/12 13/34/13 
f 41/68/15 50/91/17 60/92/17 58/93/17 57/94/17 14/41/16 
f 61/95/17 52/96/17 51/97/17 
f 62/98/12 63/99/28 13/34/13 64/100/13 
s 1
f 52/101/5 65/102/5 66/103/5 53/104/5 
s 4
f 67/105/29 68/106/14 69/107/15 14/41/16 14/41/16 67/105/29 
s 1
f 70/108/30 71/109/30 72/110/30 57/111/30 56/108/30 
s 2
f 73/112/31 74/113/31 64/114/31 75/115/31 73/112/31 
f 76/116/32 77/117/10 67/118/10 78/119/32 
s 4
f 66/120/12 79/121/12 75/122/12 53/123/12 53/123/12 
f 56/90/28 13/34/13 63/99/28 77/124/28 70/90/28 
f 57/94/17 72/125/29 80/126/29 78/127/29 67/105/29 14/41/16 
f 73/128/29 73/128/17 81/129/17 65/130/17 52/96/17 61/95/17 
f 3/131/33 2/132/34 82/133/35 
s 8
f 83/134/36 84/135/37 85/136/38 
s 4
f 67/105/29 86/137/29 87/138/14 67/105/29 
s 1
f 88/139/39 2/2/2 1/1/1 
s 4
f 2/132/34 88/140/40 82/133/35 
f 89/141/41 90/142/42 91/143/43 
s 1
f 90/144/44 89/145/45 92/146/46 
f 86/147/47 93/148/48 94/149/49 94/149/50 95/150/51 88/139/39 1/1/1 87/151/52 
f 94/149/49 93/148/48 96/152/53 94/149/50 
s 4
f 97/153/54 77/124/28 98/154/55 
f 96/155/56 98/154/55 98/154/57 95/156/58 
s 8
f 77/157/59 97/158/60 99/159/61 
f 99/159/61 97/158/60 96/160/62 
s 1
f 96/152/53 95/150/51 94/149/50 
s 4
f 96/155/56 97/153/54 98/154/55 
s 8
f 96/160/62 93/161/63 99/159/61 
f 99/159/61 67/162/59 77/157/59 
s 4
f 77/124/28 100/163/64 98/154/55 
f 95/156/58 98/154/57 98/154/55 100/163/64 82/133/35 88/140/40 
s 8
f 86/164/65 67/162/59 99/159/61 93/161/63 
s 4
f 45/42/23 14/41/16 101/42/66 
f 101/42/66 14/41/16 14/41/16 102/107/67 
s 1
f 103/165/68 90/144/44 92/146/46 
s 4
f 90/142/42 103/166/69 91/143/43 
f 104/167/17 68/106/14 105/168/17 106/169/14 
f 107/170/64 91/143/43 103/166/69 3/131/33 
f 85/171/70 84/172/71 108/173/72 
s 1
f 108/174/73 84/175/74 83/176/75 
f 105/177/76 87/151/52 1/1/1 3/3/3 103/165/68 92/146/46 
s 8
f 74/178/77 109/179/77 83/134/36 85/136/38 64/180/77 
s 1
f 105/177/76 92/146/46 89/145/45 110/181/78 106/182/79 
s 4
f 91/143/43 107/170/64 100/163/64 62/98/12 110/183/12 89/141/41 
f 64/100/13 85/171/70 108/173/72 111/98/12 62/98/12 
s 1
f 112/184/80 113/185/81 108/174/73 109/186/82 
s 4
f 104/167/17 112/187/17 109/188/17 74/189/29 
f 62/98/12 114/190/12 110/183/12 
s 1
f 110/181/78 114/191/83 115/192/84 106/182/79 
s 4
f 106/169/14 115/193/17 104/167/17 
f 111/98/12 113/194/12 114/190/12 62/98/12 
s 1
f 114/191/83 113/185/81 112/184/80 115/192/84 
s 4
f 115/193/17 112/187/17 104/167/17 
s off
f 5/195/85 116/196/85 28/197/85 27/198/85 6/199/85 
f 7/200/86 26/201/86 117/202/86 4/203/86 
f 9/204/87 118/205/87 29/206/87 10/207/87 
f 119/208/88 120/209/88 43/210/88 32/211/88 31/212/88 
f 33/213/89 121/214/89 44/215/89 34/216/89 
f 47/217/90 122/218/90 59/219/90 48/220/90 
f 49/221/91 123/222/91 60/223/91 50/224/91 
f 65/225/92 81/226/92 79/227/92 66/228/92 
f 71/229/93 124/230/93 80/231/93 72/232/93 
f 116/196/94 18/20/94 21/23/94 28/197/94 
f 26/201/95 12/12/95 17/17/95 117/202/95 
f 118/205/96 22/24/96 25/27/96 29/206/96 
f 120/209/97 35/52/97 38/55/97 43/210/97 
f 121/214/98 39/56/98 42/59/98 44/215/98 
f 122/218/99 51/78/99 54/81/99 59/219/99 
f 123/222/100 55/82/100 58/85/100 60/223/100 
f 81/226/101 73/112/101 75/115/101 79/227/101 
f 124/230/102 76/116/102 78/119/102 80/231/102 
s 4
f 102/107/67 14/41/16 69/107/15 
f 68/106/14 104/167/17 69/107/15 
f 74/189/29 102/107/67 69/107/15 104/167/17 
f 74/189/29 73/128/29 61/95/17 101/42/66 102/107/67 
f 61/95/17 51/97/17 122/233/17 47/234/17 46/235/17 61/95/17 
f 120/236/29 119/237/29 36/238/17 35/239/29 
f 116/240/29 5/241/29 19/242/29 18/243/29 
f 68/106/14 67/105/29 87/138/14 105/168/17 
f 101/42/66 61/95/17 61/95/17 36/238/17 45/42/23 
f 46/235/17 36/238/17 61/95/17 
f 19/242/29 30/42/18 45/42/23 36/238/17 119/237/29 31/237/17 
f 15/42/17 30/42/18 19/242/29 19/242/29 16/244/17 
f 19/242/29 5/241/29 4/245/17 19/242/29 
f 117/246/17 17/247/17 16/244/17 19/242/29 4/245/17 
f 100/163/64 77/124/28 63/99/28 
f 63/99/28 62/98/12 100/163/64 
f 108/173/72 113/194/12 111/98/12 
s 1
f 108/174/73 83/176/75 109/186/82 
s 4
f 37/88/12 54/87/12 53/123/12 53/123/12 
f 38/60/12 37/88/12 20/61/12 
f 21/31/12 20/248/12 20/61/12 12/32/12 
f 27/29/12 26/28/12 7/249/12 6/250/12 
f 33/251/12 23/35/12 23/35/12 39/252/12 121/253/12 
f 9/254/12 8/33/12 22/255/12 118/256/12 
f 75/122/12 64/100/13 53/123/12 
f 64/100/13 13/34/13 53/123/12 
f 53/123/12 13/34/13 37/88/12 
f 37/88/12 13/34/13 20/61/12 
f 20/61/12 13/34/13 12/32/12 
f 23/35/12 22/255/12 8/33/12 
f 40/64/12 39/252/12 23/35/12 
f 123/257/12 40/64/12 56/90/28 55/258/12 
f 71/259/64 70/90/28 76/260/64 124/261/64 
f 70/90/28 77/124/28 76/260/64 
f 123/257/12 49/262/12 40/64/12 
f 100/163/64 107/170/64 3/131/33 82/133/35 
# 89 polygons - 43 triangles

