# 3ds Max Wavefront OBJ Exporter v0.97b - (c)2007 guruware
# File Created: 02.11.2019 14:10:57

mtllib wanz2.mtl

#
# object Object022
#

v  877.1699 -78.4812 -0.2595
v  897.6294 -78.4812 -76.6155
v  953.5259 -78.4812 -132.5120
v  1029.8820 -78.4812 -152.9716
v  1106.2380 -78.4812 -132.5120
v  1162.1345 -78.4813 -76.6155
v  1182.5940 -78.4813 -0.2595
v  1162.1344 -78.4813 76.0967
v  1106.2379 -78.4812 131.9931
v  1029.8818 -78.4812 152.4526
v  953.5259 -78.4812 131.9930
v  897.6294 -78.4812 76.0965
v  1162.1344 -58.5901 76.0966
v  1106.2379 -58.5901 131.9931
v  1029.8818 -58.5901 152.4526
v  953.5259 -58.5900 131.9930
v  897.6294 -58.5900 76.0965
v  877.1699 -58.5900 -0.2595
v  897.6294 -58.5900 -76.6155
v  953.5259 -58.5900 -132.5120
v  1029.8820 -58.5901 -152.9716
v  1106.2380 -58.5901 -132.5120
v  1162.1345 -58.5901 -76.6155
v  1182.5940 -58.5901 -0.2595
v  1132.3833 -47.0021 58.9199
v  1089.0612 -47.0021 102.2420
v  1100.4438 -47.0021 121.9576
v  1152.0989 -47.0021 70.3027
v  1029.8818 -47.0021 118.0990
v  1029.8818 -47.0021 140.8646
v  970.7026 -47.0021 102.2420
v  959.3198 -47.0021 121.9575
v  927.3804 -47.0021 58.9198
v  907.6649 -47.0021 70.3025
v  911.5234 -47.0021 -0.2595
v  888.7578 -47.0021 -0.2595
v  927.3805 -47.0021 -59.4387
v  907.6649 -47.0021 -70.8215
v  970.7027 -47.0021 -102.7610
v  959.3199 -47.0021 -122.4765
v  1029.8820 -47.0021 -118.6180
v  1029.8820 -47.0021 -141.3836
v  1089.0612 -47.0021 -102.7610
v  1100.4440 -47.0021 -122.4765
v  1132.3834 -47.0021 -59.4387
v  1152.0990 -47.0021 -70.8215
v  1148.2405 -47.0021 -0.2595
v  1171.0061 -47.0021 -0.2595
v  1132.3833 -21.9106 58.9198
v  1089.0612 -21.9106 102.2420
v  1029.8818 -21.9106 118.0990
v  970.7026 -21.9106 102.2420
v  927.3804 -21.9106 58.9198
v  911.5234 -21.9106 -0.2595
v  927.3805 -21.9106 -59.4387
v  970.7027 -21.9106 -102.7610
v  1029.8820 -21.9106 -118.6180
v  1089.0612 -21.9106 -102.7610
v  1132.3834 -21.9106 -59.4387
v  1148.2405 -21.9106 -0.2595
v  1106.9829 -10.6700 44.2549
v  1074.3962 -10.6700 76.8416
v  1083.2676 -10.4600 92.2072
v  1122.3486 -10.4600 53.1263
v  1029.8818 -10.6700 88.7692
v  1029.8818 -10.4600 106.5118
v  985.3676 -10.6700 76.8416
v  976.4962 -10.4598 92.2072
v  952.7808 -10.6700 44.2548
v  937.4152 -10.4598 53.1262
v  940.8533 -10.6700 -0.2595
v  923.1106 -10.4598 -0.2595
v  952.7809 -10.6700 -44.7738
v  937.4153 -10.4598 -53.6451
v  985.3676 -10.6700 -77.3606
v  976.4963 -10.4598 -92.7262
v  1029.8820 -10.6700 -89.2881
v  1029.8820 -10.4600 -107.0308
v  1074.3962 -10.6700 -77.3606
v  1083.2676 -10.4600 -92.7262
v  1106.9830 -10.6700 -44.7738
v  1122.3486 -10.4600 -53.6451
v  1118.9106 -10.6700 -0.2595
v  1136.6533 -10.4600 -0.2595
v  1106.9543 18.9509 -44.7573
v  1118.8776 18.9509 -0.2595
v  1074.3798 18.9509 -77.3320
v  1029.8820 18.9509 -89.2551
v  985.3841 18.9509 -77.3320
v  952.8094 18.9510 -44.7573
v  940.8863 18.9510 -0.2595
v  952.8094 18.9510 44.2383
v  985.3841 18.9509 76.8130
v  1029.8818 18.9509 88.7362
v  1074.3796 18.9509 76.8130
v  1106.9543 18.9509 44.2384
v  1094.8137 32.3801 -37.7479
v  1104.8588 32.3801 -0.2595
v  1067.3704 32.3801 -65.1913
v  1029.8820 32.3801 -75.2363
v  992.3936 32.3801 -65.1913
v  964.9501 32.3801 -37.7479
v  954.9051 32.3801 -0.2595
v  964.9501 32.3801 37.2289
v  992.3936 32.3801 64.6723
v  1029.8818 32.3801 74.7174
v  1067.3704 32.3801 64.6724
v  1094.8137 32.3801 37.2290
v  1079.0997 32.3801 -28.6754
v  1086.7137 32.3801 -0.2595
v  1058.2979 32.3801 -49.4773
v  1029.8820 32.3801 -57.0913
v  1001.4660 32.3801 -49.4773
v  980.6641 32.3801 -28.6754
v  973.0501 32.3801 -0.2595
v  980.6641 32.3801 28.1564
v  1001.4660 32.3801 48.9583
v  1029.8818 32.3801 56.5724
v  1058.2979 32.3801 48.9584
v  1079.0997 32.3801 28.1565
# 120 vertices

vn 0.0000 -1.0000 -0.0000
vn -0.0000 -1.0000 -0.0000
vn -0.0000 -1.0000 0.0000
vn 0.8073 0.3620 0.4661
vn 0.4661 0.3620 0.8073
vn 0.5000 0.0000 0.8660
vn 0.8660 0.0000 0.5000
vn -0.0000 0.3620 0.9322
vn -0.0000 0.0000 1.0000
vn -0.4661 0.3620 0.8073
vn -0.5000 0.0000 0.8660
vn -0.8073 0.3620 0.4661
vn -0.8660 0.0000 0.5000
vn -0.9322 0.3620 -0.0000
vn -1.0000 0.0000 0.0000
vn -0.8073 0.3620 -0.4661
vn -0.8660 -0.0000 -0.5000
vn -0.4661 0.3620 -0.8073
vn -0.5000 -0.0000 -0.8660
vn 0.0000 0.3620 -0.9322
vn -0.0000 0.0000 -1.0000
vn 0.4661 0.3620 -0.8073
vn 0.5000 0.0000 -0.8660
vn 0.8073 0.3620 -0.4661
vn 0.8660 -0.0000 -0.5000
vn 0.9322 0.3620 0.0000
vn 1.0000 0.0000 0.0000
vn 0.0000 1.0000 -0.0000
vn 0.8064 0.3645 0.4656
vn 0.4656 0.3645 0.8064
vn -0.0000 0.3645 0.9312
vn -0.4656 0.3645 0.8064
vn -0.8064 0.3645 0.4656
vn -0.9312 0.3645 -0.0000
vn -1.0000 0.0000 -0.0000
vn -0.8064 0.3645 -0.4656
vn -0.8660 0.0000 -0.5000
vn -0.4656 0.3645 -0.8064
vn -0.5000 0.0000 -0.8660
vn -0.0000 0.3645 -0.9312
vn 0.4656 0.3645 -0.8064
vn 0.8064 0.3645 -0.4656
vn 0.8660 0.0000 -0.5000
vn 0.9312 0.3645 0.0000
vn -0.0103 0.9999 -0.0059
vn -0.0059 0.9999 -0.0103
vn 0.0000 0.9999 -0.0118
vn 0.0059 0.9999 -0.0103
vn 0.0103 0.9999 -0.0059
vn 0.0118 0.9999 0.0000
vn 0.0103 0.9999 0.0059
vn 0.0059 0.9999 0.0103
vn 0.0000 0.9999 0.0118
vn -0.0059 0.9999 0.0103
vn -0.0103 0.9999 0.0059
vn -0.0118 0.9999 -0.0000
vn 0.8660 0.0011 -0.5000
vn 1.0000 0.0011 -0.0000
vn 1.0000 0.0011 0.0000
vn 0.5000 0.0011 -0.8660
vn -0.0000 0.0011 -1.0000
vn -0.5000 0.0011 -0.8660
vn -0.8660 0.0011 -0.5000
vn -1.0000 0.0011 -0.0000
vn -0.8660 0.0011 0.5000
vn -0.5000 0.0011 0.8660
vn -0.0000 0.0011 1.0000
vn 0.5000 0.0011 0.8660
vn 0.8660 0.0011 0.5000
vn 0.3669 0.9058 -0.2118
vn 0.4237 0.9058 -0.0000
vn 0.6918 0.7221 -0.0000
vn 0.5991 0.7221 -0.3459
vn 0.2118 0.9058 -0.3669
vn 0.3459 0.7221 -0.5991
vn -0.0000 0.9058 -0.4237
vn -0.0000 0.7221 -0.6918
vn -0.2118 0.9058 -0.3669
vn -0.3459 0.7221 -0.5991
vn -0.3669 0.9058 -0.2118
vn -0.5991 0.7221 -0.3459
vn -0.4237 0.9058 -0.0000
vn -0.6918 0.7221 -0.0000
vn -0.3669 0.9058 0.2118
vn -0.5991 0.7221 0.3459
vn -0.2118 0.9058 0.3669
vn -0.3459 0.7221 0.5991
vn -0.0000 0.9058 0.4237
vn -0.0000 0.7221 0.6918
vn 0.2118 0.9058 0.3669
vn 0.3459 0.7221 0.5991
vn 0.3669 0.9058 0.2118
vn 0.5991 0.7221 0.3459
vn 0.3536 0.7071 0.6124
vn 0.6124 0.7071 0.3536
vn -0.0000 0.7071 0.7071
vn -0.3536 0.7071 0.6124
vn -0.6124 0.7071 0.3536
vn -0.7071 0.7071 -0.0000
vn -0.6124 0.7071 -0.3536
vn -0.3536 0.7071 -0.6124
vn 0.0000 0.7071 -0.7071
vn 0.3536 0.7071 -0.6124
vn 0.6124 0.7071 -0.3536
vn 0.7071 0.7071 0.0000
vn 0.3515 0.7113 0.6087
vn 0.6087 0.7113 0.3515
vn 0.0000 0.7113 0.7029
vn -0.3515 0.7113 0.6087
vn -0.6087 0.7113 0.3515
vn -0.7029 0.7113 -0.0000
vn -0.6087 0.7113 -0.3515
vn -0.3515 0.7113 -0.6087
vn -0.0000 0.7113 -0.7029
vn 0.3515 0.7113 -0.6087
vn 0.6087 0.7113 -0.3515
vn 0.7029 0.7113 0.0000
# 117 vertex normals

vt 0.0091 0.4972 0.0000
vt 0.0291 0.4226 0.0000
vt 0.0838 0.3680 0.0000
vt 0.1584 0.3480 0.0000
vt 0.2330 0.3680 0.0000
vt 0.2876 0.4226 0.0000
vt 0.3076 0.4972 0.0000
vt 0.2876 0.5718 0.0000
vt 0.2330 0.6265 0.0000
vt 0.1584 0.6464 0.0000
vt 0.0838 0.6265 0.0000
vt 0.0291 0.5718 0.0000
vt 0.4424 0.9651 0.0000
vt 0.5393 0.9651 0.0000
vt 0.5393 0.9458 0.0000
vt 0.4424 0.9458 0.0000
vt 0.6386 0.9651 0.0000
vt 0.6386 0.9458 0.0000
vt 0.7391 0.9651 0.0000
vt 0.7391 0.9458 0.0000
vt 0.8398 0.9651 0.0000
vt 0.8398 0.9458 0.0000
vt 0.9386 0.9651 0.0000
vt 0.9386 0.9458 0.0000
vt 0.0180 0.9651 0.0000
vt 0.0369 0.9651 0.0000
vt 0.0369 0.9458 0.0000
vt 0.0180 0.9458 0.0000
vt 0.0723 0.9651 0.0000
vt 0.0723 0.9458 0.0000
vt 0.1230 0.9651 0.0000
vt 0.1230 0.9458 0.0000
vt 0.1876 0.9651 0.0000
vt 0.1876 0.9458 0.0000
vt 0.2641 0.9651 0.0000
vt 0.2641 0.9458 0.0000
vt 0.3499 0.9651 0.0000
vt 0.3499 0.9458 0.0000
vt 0.9234 0.5812 0.0000
vt 0.8811 0.5388 0.0000
vt 0.8922 0.5195 0.0000
vt 0.9427 0.5700 0.0000
vt 0.8232 0.5233 0.0000
vt 0.8232 0.5011 0.0000
vt 0.7654 0.5388 0.0000
vt 0.7543 0.5195 0.0000
vt 0.7231 0.5812 0.0000
vt 0.7038 0.5700 0.0000
vt 0.7076 0.6390 0.0000
vt 0.6853 0.6390 0.0000
vt 0.7231 0.6968 0.0000
vt 0.7038 0.7079 0.0000
vt 0.7654 0.7392 0.0000
vt 0.7543 0.7584 0.0000
vt 0.8232 0.7547 0.0000
vt 0.8232 0.7769 0.0000
vt 0.8811 0.7392 0.0000
vt 0.8922 0.7584 0.0000
vt 0.9234 0.6968 0.0000
vt 0.9427 0.7079 0.0000
vt 0.9389 0.6390 0.0000
vt 0.9612 0.6390 0.0000
vt 0.3696 0.7985 0.0000
vt 0.3011 0.7985 0.0000
vt 0.3011 0.8231 0.0000
vt 0.3696 0.8231 0.0000
vt 0.2309 0.7985 0.0000
vt 0.2309 0.8231 0.0000
vt 0.1598 0.7985 0.0000
vt 0.1598 0.8231 0.0000
vt 0.0884 0.7985 0.0000
vt 0.0884 0.8231 0.0000
vt 0.0180 0.7985 0.0000
vt 0.0180 0.8231 0.0000
vt 0.7258 0.7985 0.0000
vt 0.6947 0.7985 0.0000
vt 0.6947 0.8231 0.0000
vt 0.7258 0.8231 0.0000
vt 0.6556 0.7985 0.0000
vt 0.6556 0.8231 0.0000
vt 0.6092 0.7985 0.0000
vt 0.6092 0.8231 0.0000
vt 0.5564 0.7985 0.0000
vt 0.5564 0.8231 0.0000
vt 0.4983 0.7985 0.0000
vt 0.4983 0.8231 0.0000
vt 0.4357 0.7985 0.0000
vt 0.4357 0.8231 0.0000
vt 0.8050 0.0908 0.0000
vt 0.7731 0.0589 0.0000
vt 0.7818 0.0439 0.0000
vt 0.8200 0.0821 0.0000
vt 0.7296 0.0473 0.0000
vt 0.7296 0.0299 0.0000
vt 0.6861 0.0589 0.0000
vt 0.6774 0.0439 0.0000
vt 0.6543 0.0908 0.0000
vt 0.6393 0.0821 0.0000
vt 0.6426 0.1343 0.0000
vt 0.6253 0.1343 0.0000
vt 0.6543 0.1778 0.0000
vt 0.6393 0.1864 0.0000
vt 0.6861 0.2096 0.0000
vt 0.6774 0.2246 0.0000
vt 0.7296 0.2213 0.0000
vt 0.7296 0.2386 0.0000
vt 0.7731 0.2096 0.0000
vt 0.7818 0.2246 0.0000
vt 0.8050 0.1778 0.0000
vt 0.8200 0.1864 0.0000
vt 0.8166 0.1343 0.0000
vt 0.8340 0.1343 0.0000
vt 0.2432 0.7671 0.0000
vt 0.2882 0.7671 0.0000
vt 0.2882 0.7381 0.0000
vt 0.2432 0.7381 0.0000
vt 0.1981 0.7671 0.0000
vt 0.1981 0.7381 0.0000
vt 0.1531 0.7671 0.0000
vt 0.1531 0.7381 0.0000
vt 0.1081 0.7671 0.0000
vt 0.1081 0.7381 0.0000
vt 0.0630 0.7671 0.0000
vt 0.0630 0.7381 0.0000
vt 0.0180 0.7671 0.0000
vt 0.0180 0.7381 0.0000
vt 0.5133 0.7671 0.0000
vt 0.5584 0.7671 0.0000
vt 0.5584 0.7382 0.0000
vt 0.5133 0.7382 0.0000
vt 0.4683 0.7671 0.0000
vt 0.4683 0.7382 0.0000
vt 0.4233 0.7671 0.0000
vt 0.4233 0.7381 0.0000
vt 0.3783 0.7671 0.0000
vt 0.3783 0.7381 0.0000
vt 0.3332 0.7671 0.0000
vt 0.3332 0.7381 0.0000
vt 0.6991 0.4361 0.0000
vt 0.7088 0.3997 0.0000
vt 0.7278 0.3997 0.0000
vt 0.7155 0.4455 0.0000
vt 0.6725 0.4627 0.0000
vt 0.6820 0.4791 0.0000
vt 0.6361 0.4724 0.0000
vt 0.6361 0.4914 0.0000
vt 0.5998 0.4627 0.0000
vt 0.5903 0.4791 0.0000
vt 0.5732 0.4361 0.0000
vt 0.5568 0.4455 0.0000
vt 0.5635 0.3997 0.0000
vt 0.5445 0.3997 0.0000
vt 0.5732 0.3634 0.0000
vt 0.5568 0.3539 0.0000
vt 0.5998 0.3368 0.0000
vt 0.5903 0.3204 0.0000
vt 0.6361 0.3271 0.0000
vt 0.6361 0.3081 0.0000
vt 0.6725 0.3368 0.0000
vt 0.6820 0.3204 0.0000
vt 0.6991 0.3634 0.0000
vt 0.7155 0.3539 0.0000
vt 0.6837 0.4272 0.0000
vt 0.6911 0.3997 0.0000
vt 0.6636 0.4473 0.0000
vt 0.6361 0.4547 0.0000
vt 0.6087 0.4473 0.0000
vt 0.5886 0.4272 0.0000
vt 0.5812 0.3997 0.0000
vt 0.5886 0.3723 0.0000
vt 0.6087 0.3522 0.0000
vt 0.6361 0.3448 0.0000
vt 0.6636 0.3522 0.0000
vt 0.6837 0.3723 0.0000
vt 0.5393 0.9806 0.0000
vt 0.4424 0.9806 0.0000
vt 0.6386 0.9806 0.0000
vt 0.7391 0.9806 0.0000
vt 0.8398 0.9806 0.0000
vt 0.9386 0.9806 0.0000
vt 0.0369 0.9806 0.0000
vt 0.0180 0.9806 0.0000
vt 0.0723 0.9806 0.0000
vt 0.1230 0.9806 0.0000
vt 0.1876 0.9806 0.0000
vt 0.2641 0.9806 0.0000
vt 0.3499 0.9806 0.0000
vt 0.3011 0.7831 0.0000
vt 0.3696 0.7831 0.0000
vt 0.2309 0.7831 0.0000
vt 0.1598 0.7831 0.0000
vt 0.0884 0.7831 0.0000
vt 0.0180 0.7831 0.0000
vt 0.6947 0.7831 0.0000
vt 0.7258 0.7831 0.0000
vt 0.6556 0.7831 0.0000
vt 0.6092 0.7831 0.0000
vt 0.5564 0.7831 0.0000
vt 0.4983 0.7831 0.0000
vt 0.4357 0.7831 0.0000
# 200 texture coords

g Object022
usemtl 2
s 1
f 1/1/1 2/2/1 3/3/2 4/4/1 5/5/2 6/6/3 7/7/2 8/8/2 9/9/3 10/10/1 11/11/3 12/12/1 
s 2
f 13/13/4 14/14/5 9/15/6 8/16/7 
f 14/14/5 15/17/8 10/18/9 9/15/6 
f 15/17/8 16/19/10 11/20/11 10/18/9 
f 16/19/10 17/21/12 12/22/13 11/20/11 
f 17/21/12 18/23/14 1/24/15 12/22/13 
f 18/25/14 19/26/16 2/27/17 1/28/15 
f 19/26/16 20/29/18 3/30/19 2/27/17 
f 20/29/18 21/31/20 4/32/21 3/30/19 
f 21/31/20 22/33/22 5/34/23 4/32/21 
f 22/33/22 23/35/24 6/36/25 5/34/23 
f 23/35/24 24/37/26 7/38/27 6/36/25 
f 24/37/26 13/13/4 8/16/7 7/38/27 
s 1
f 25/39/28 26/40/28 27/41/28 28/42/28 
f 26/40/28 29/43/28 30/44/28 27/41/28 
f 29/43/28 31/45/28 32/46/28 30/44/28 
f 31/45/28 33/47/28 34/48/28 32/46/28 
f 33/47/28 35/49/28 36/50/28 34/48/28 
f 35/49/28 37/51/28 38/52/28 36/50/28 
f 37/51/28 39/53/28 40/54/28 38/52/28 
f 39/53/28 41/55/28 42/56/28 40/54/28 
f 41/55/28 43/57/28 44/58/28 42/56/28 
f 43/57/28 45/59/28 46/60/28 44/58/28 
f 45/59/28 47/61/28 48/62/28 46/60/28 
f 47/61/28 25/39/28 28/42/28 48/62/28 
s 2
f 49/63/29 50/64/30 26/65/6 25/66/7 
f 50/64/30 51/67/31 29/68/9 26/65/6 
f 51/67/31 52/69/32 31/70/11 29/68/9 
f 52/69/32 53/71/33 33/72/13 31/70/11 
f 53/71/33 54/73/34 35/74/35 33/72/13 
f 54/75/34 55/76/36 37/77/37 35/78/35 
f 55/76/36 56/79/38 39/80/39 37/77/37 
f 56/79/38 57/81/40 41/82/21 39/80/39 
f 57/81/40 58/83/41 43/84/23 41/82/21 
f 58/83/41 59/85/42 45/86/43 43/84/23 
f 59/85/42 60/87/44 47/88/27 45/86/43 
f 60/87/44 49/63/29 25/66/7 47/88/27 
s 1
f 61/89/45 62/90/46 63/91/46 64/92/45 
f 62/90/46 65/93/47 66/94/47 63/91/46 
f 65/93/47 67/95/48 68/96/48 66/94/47 
f 67/95/48 69/97/49 70/98/49 68/96/48 
f 69/97/49 71/99/50 72/100/50 70/98/49 
f 71/99/50 73/101/51 74/102/51 72/100/50 
f 73/101/51 75/103/52 76/104/52 74/102/51 
f 75/103/52 77/105/53 78/106/53 76/104/52 
f 77/105/53 79/107/54 80/108/54 78/106/53 
f 79/107/54 81/109/55 82/110/55 80/108/54 
f 81/109/55 83/111/56 84/112/56 82/110/55 
f 83/111/56 61/89/45 64/92/45 84/112/56 
s 2
f 85/113/57 86/114/58 83/115/59 81/116/57 
f 87/117/60 85/113/57 81/116/57 79/118/60 
f 88/119/61 87/117/60 79/118/60 77/120/61 
f 89/121/62 88/119/61 77/120/61 75/122/62 
f 90/123/63 89/121/62 75/122/62 73/124/63 
f 91/125/64 90/123/63 73/124/63 71/126/64 
f 92/127/65 91/128/64 71/129/64 69/130/65 
f 93/131/66 92/127/65 69/130/65 67/132/66 
f 94/133/67 93/131/66 67/132/66 65/134/67 
f 95/135/68 94/133/67 65/134/67 62/136/68 
f 96/137/69 95/135/68 62/136/68 61/138/69 
f 86/114/58 96/137/69 61/138/69 83/115/59 
s 1
f 97/139/70 98/140/71 86/141/72 85/142/73 
f 99/143/74 97/139/70 85/142/73 87/144/75 
f 100/145/76 99/143/74 87/144/75 88/146/77 
f 101/147/78 100/145/76 88/146/77 89/148/79 
f 102/149/80 101/147/78 89/148/79 90/150/81 
f 103/151/82 102/149/80 90/150/81 91/152/83 
f 104/153/84 103/151/82 91/152/83 92/154/85 
f 105/155/86 104/153/84 92/154/85 93/156/87 
f 106/157/88 105/155/86 93/156/87 94/158/89 
f 107/159/90 106/157/88 94/158/89 95/160/91 
f 108/161/92 107/159/90 95/160/91 96/162/93 
f 98/140/71 108/161/92 96/162/93 86/141/72 
f 109/163/28 110/164/28 98/140/71 97/139/70 
f 111/165/28 109/163/28 97/139/70 99/143/74 
f 112/166/28 111/165/28 99/143/74 100/145/76 
f 113/167/28 112/166/28 100/145/76 101/147/78 
f 114/168/28 113/167/28 101/147/78 102/149/80 
f 115/169/28 114/168/28 102/149/80 103/151/82 
f 116/170/28 115/169/28 103/151/82 104/153/84 
f 117/171/28 116/170/28 104/153/84 105/155/86 
f 118/172/28 117/171/28 105/155/86 106/157/88 
f 119/173/28 118/172/28 106/157/88 107/159/90 
f 120/174/28 119/173/28 107/159/90 108/161/92 
f 110/164/28 120/174/28 108/161/92 98/140/71 
s 2
f 27/175/94 14/14/5 13/13/4 28/176/95 
f 30/177/96 15/17/8 14/14/5 27/175/94 
f 32/178/97 16/19/10 15/17/8 30/177/96 
f 34/179/98 17/21/12 16/19/10 32/178/97 
f 36/180/99 18/23/14 17/21/12 34/179/98 
f 38/181/100 19/26/16 18/25/14 36/182/99 
f 40/183/101 20/29/18 19/26/16 38/181/100 
f 42/184/102 21/31/20 20/29/18 40/183/101 
f 44/185/103 22/33/22 21/31/20 42/184/102 
f 46/186/104 23/35/24 22/33/22 44/185/103 
f 48/187/105 24/37/26 23/35/24 46/186/104 
f 28/176/95 13/13/4 24/37/26 48/187/105 
f 63/188/106 50/64/30 49/63/29 64/189/107 
f 66/190/108 51/67/31 50/64/30 63/188/106 
f 68/191/109 52/69/32 51/67/31 66/190/108 
f 70/192/110 53/71/33 52/69/32 68/191/109 
f 72/193/111 54/73/34 53/71/33 70/192/110 
f 74/194/112 55/76/36 54/75/34 72/195/111 
f 76/196/113 56/79/38 55/76/36 74/194/112 
f 78/197/114 57/81/40 56/79/38 76/196/113 
f 80/198/115 58/83/41 57/81/40 78/197/114 
f 82/199/116 59/85/42 58/83/41 80/198/115 
f 84/200/117 60/87/44 59/85/42 82/199/116 
f 64/189/107 49/63/29 60/87/44 84/200/117 
# 109 polygons

#
# object Object024
#

v  1089.3361 721.0759 -0.2594
v  1081.3707 721.0759 -29.9865
v  1081.3707 1413.7163 -29.9865
v  1089.3361 1413.7163 -0.2594
v  1059.6089 721.0759 -51.7483
v  1059.6089 1413.7163 -51.7482
v  1029.8818 721.0759 -59.7136
v  1029.8818 1413.7163 -59.7136
v  1000.1547 721.0759 -51.7483
v  1000.1547 1413.7163 -51.7482
v  978.3929 721.0759 -29.9865
v  978.3929 1413.7163 -29.9865
v  970.4276 721.0759 -0.2594
v  970.4276 1413.7163 -0.2594
v  978.3929 721.0760 29.4677
v  978.3929 1413.7163 29.4677
v  1000.1547 721.0760 51.2295
v  1000.1547 1413.7163 51.2295
v  1029.8818 721.0760 59.1948
v  1029.8818 1413.7163 59.1949
v  1059.6089 721.0760 51.2295
v  1059.6089 1413.7163 51.2295
v  1081.3707 721.0760 29.4678
v  1081.3707 1413.7163 29.4678
v  1089.3361 28.5305 -0.2594
v  1081.3707 28.5305 -29.9865
v  1081.3707 721.1708 -29.9865
v  1089.3361 721.1708 -0.2594
v  1059.6089 28.5305 -51.7483
v  1059.6089 721.1708 -51.7483
v  1029.8818 28.5305 -59.7136
v  1029.8818 721.1708 -59.7136
v  1000.1547 28.5305 -51.7483
v  1000.1547 721.1708 -51.7482
v  978.3929 28.5305 -29.9865
v  978.3929 721.1708 -29.9865
v  970.4276 28.5305 -0.2594
v  970.4276 721.1708 -0.2594
v  978.3929 28.5305 29.4677
v  978.3929 721.1708 29.4677
v  1000.1547 28.5305 51.2294
v  1000.1547 721.1708 51.2295
v  1029.8818 28.5305 59.1948
v  1029.8818 721.1708 59.1948
v  1059.6089 28.5305 51.2295
v  1059.6089 721.1708 51.2295
v  1081.3707 28.5305 29.4677
v  1081.3707 721.1708 29.4677
# 48 vertices

vn 1.0000 -0.0000 0.0000
vn 0.8660 0.0000 -0.5000
vn 1.0000 0.0000 0.0000
vn 0.5000 0.0000 -0.8660
vn -0.0000 0.0000 -1.0000
vn -0.5000 0.0000 -0.8660
vn -0.8660 0.0000 -0.5000
vn -1.0000 0.0000 -0.0000
vn -1.0000 -0.0000 -0.0000
vn -0.8660 -0.0000 0.5000
vn -0.5000 -0.0000 0.8660
vn -0.0000 -0.0000 1.0000
vn 0.5000 -0.0000 0.8660
vn 0.8660 -0.0000 0.5000
vn 0.0000 1.0000 -0.0000
vn 0.0000 -1.0000 0.0000
vn -0.0000 -1.0000 0.0000
vn 0.0000 -1.0000 -0.0000
# 18 vertex normals

vt 0.4816 0.0020 0.0000
vt 0.5252 0.0020 0.0000
vt 0.5252 0.9980 0.0000
vt 0.4816 0.9980 0.0000
vt 0.0020 0.0020 0.0000
vt 0.0456 0.0020 0.0000
vt 0.0456 0.9980 0.0000
vt 0.0020 0.9980 0.0000
vt 0.0892 0.0020 0.0000
vt 0.0892 0.9980 0.0000
vt 0.1328 0.0020 0.0000
vt 0.1328 0.9980 0.0000
vt 0.1764 0.0020 0.0000
vt 0.1764 0.9980 0.0000
vt 0.2200 0.0020 0.0000
vt 0.2200 0.9980 0.0000
vt 0.2636 0.0020 0.0000
vt 0.2636 0.9980 0.0000
vt 0.3072 0.0020 0.0000
vt 0.3072 0.9980 0.0000
vt 0.3508 0.0020 0.0000
vt 0.3508 0.9980 0.0000
vt 0.3944 0.0020 0.0000
vt 0.3944 0.9980 0.0000
vt 0.4380 0.0020 0.0000
vt 0.4380 0.9980 0.0000
vt 0.5825 0.3428 0.0000
vt 0.5517 0.3120 0.0000
vt 0.7089 0.2699 0.0000
vt 0.6976 0.3120 0.0000
vt 0.5517 0.0441 0.0000
vt 0.5825 0.0133 0.0000
vt 0.6976 0.0441 0.0000
vt 0.7089 0.0862 0.0000
vt 0.5404 0.2699 0.0000
vt 0.6976 0.2278 0.0000
vt 0.6976 0.1283 0.0000
vt 0.5404 0.0862 0.0000
vt 0.5517 0.2278 0.0000
vt 0.6668 0.1969 0.0000
vt 0.6668 0.1592 0.0000
vt 0.5517 0.1283 0.0000
vt 0.5825 0.1969 0.0000
vt 0.6246 0.1857 0.0000
vt 0.6246 0.1705 0.0000
vt 0.5825 0.1592 0.0000
vt 0.6668 0.3428 0.0000
vt 0.6246 0.3541 0.0000
vt 0.6246 0.0020 0.0000
vt 0.6668 0.0133 0.0000
# 50 texture coords

g Object024
usemtl 1
s 1
f 121/201/118 122/202/119 123/203/119 124/204/120 
f 122/205/119 125/206/121 126/207/121 123/208/119 
f 125/206/121 127/209/122 128/210/122 126/207/121 
f 127/209/122 129/211/123 130/212/123 128/210/122 
f 129/211/123 131/213/124 132/214/124 130/212/123 
f 131/213/124 133/215/125 134/216/126 132/214/124 
f 133/215/125 135/217/127 136/218/127 134/216/126 
f 135/217/127 137/219/128 138/220/128 136/218/127 
f 137/219/128 139/221/129 140/222/129 138/220/128 
f 139/221/129 141/223/130 142/224/130 140/222/129 
f 141/223/130 143/225/131 144/226/131 142/224/130 
f 143/225/131 121/201/118 124/204/120 144/226/131 
s 2
f 130/227/132 132/228/132 124/229/132 123/230/132 
f 131/231/133 129/232/133 122/233/134 121/234/134 
f 134/235/132 144/236/132 124/229/132 132/228/132 
f 143/237/134 133/238/133 131/231/133 121/234/134 
f 136/239/132 142/240/132 144/236/132 134/235/132 
f 141/241/133 135/242/134 133/238/133 143/237/134 
f 138/243/132 140/244/132 142/240/132 136/239/132 
f 139/245/135 137/246/134 135/242/134 141/241/133 
f 126/247/132 128/248/132 130/227/132 123/230/132 
f 127/249/135 125/250/134 122/233/134 129/232/133 
s 1
f 145/201/118 146/202/119 147/203/119 148/204/120 
f 146/205/119 149/206/121 150/207/121 147/208/119 
f 149/206/121 151/209/122 152/210/122 150/207/121 
f 151/209/122 153/211/123 154/212/123 152/210/122 
f 153/211/123 155/213/124 156/214/124 154/212/123 
f 155/213/124 157/215/125 158/216/126 156/214/124 
f 157/215/125 159/217/127 160/218/127 158/216/126 
f 159/217/127 161/219/128 162/220/128 160/218/127 
f 161/219/128 163/221/129 164/222/129 162/220/128 
f 163/221/129 165/223/130 166/224/130 164/222/129 
f 165/223/130 167/225/131 168/226/131 166/224/130 
f 167/225/131 145/201/118 148/204/120 168/226/131 
s 2
f 154/227/132 156/228/132 148/229/132 147/230/132 
f 155/231/133 153/232/135 146/233/135 145/234/134 
f 158/235/132 168/236/132 148/229/132 156/228/132 
f 167/237/134 157/238/133 155/231/133 145/234/134 
f 160/239/132 166/240/132 168/236/132 158/235/132 
f 165/241/133 159/242/134 157/238/133 167/237/134 
f 162/243/132 164/244/132 166/240/132 160/239/132 
f 163/245/135 161/246/135 159/242/134 165/241/133 
f 150/247/132 152/248/132 154/227/132 147/230/132 
f 151/249/135 149/250/135 146/233/135 153/232/135 
# 44 polygons

